<svg width="1343" height="405" viewBox="0 0 1343 405" fill="none" xmlns="http://www.w3.org/2000/svg">
<circle cx="200.502" cy="205.5" r="162.891" transform="rotate(-15 200.502 205.5)" fill="#C1D391"/>
<path d="M361.326 205.589C361.396 202.661 365.543 201.821 366.691 204.549C367.216 205.797 366.919 207.48 366.912 208.801C366.897 211.637 366.786 214.47 366.628 217.301C365.918 230.073 363.703 242.842 360.036 255.101C348.766 292.781 324.389 325.546 291.589 347.336C275.835 357.803 258.254 365.421 239.917 370.045C223.184 374.265 205.792 375.715 188.579 374.679C132.866 371.325 82.4354 339.095 54.5227 291.17C44.0741 273.231 37.1913 253.33 33.9875 232.849C30.2639 209.045 31.7896 184.221 38.463 161.065C43.8408 142.404 52.3662 124.822 63.6665 109.015C89.5062 72.8688 130.003 47.7413 174.032 41.0144C189.476 38.6548 205.26 38.3161 220.771 40.2758C239.215 42.6061 257.107 47.9288 273.808 56.0774C290.909 64.4207 306.633 75.854 319.854 89.5149C334.778 104.936 346.636 123.018 354.771 142.86C362.875 162.628 367.109 184.26 366.909 205.625C366.879 208.722 362.374 209.434 361.45 206.449C360.976 204.921 361.288 202.147 361.23 200.465C361.113 197.056 360.888 193.651 360.555 190.256C359.545 179.971 357.534 169.785 354.548 159.889C343.999 124.931 321.227 94.1729 290.94 73.7012C276.432 63.8957 260.314 56.4948 243.401 51.9135C228.782 47.9538 213.609 46.1121 198.466 46.3938C143.351 47.4193 92.2174 77.2002 64.3246 124.649C55.3261 139.956 48.9801 156.78 45.6308 174.208C41.6659 194.84 41.8702 216.27 46.2255 236.824C50.2728 255.923 57.9326 274.214 68.6798 290.528C78.1842 304.954 90.0642 317.803 103.701 328.432C149.136 363.844 211.652 372.058 264.72 349.498C281.695 342.281 297.368 332.087 310.861 319.533C324.885 306.486 336.524 290.919 345.025 273.77C355.665 252.303 360.756 229.463 361.326 205.589Z" fill="black"/>
<path d="M54.5889 181.748C57.3235 207.445 108.121 220.018 119.527 225.168C134.791 208.937 141.465 186.793 140.001 164.246C139.458 155.895 133.3 146.82 129.069 143.325C124.838 139.83 112.982 129.169 95.8807 114.35C82.1999 102.495 75.9272 77.4806 75.9781 77.8185C76.3087 80.0127 62.8199 112.741 62.5657 113.357L62.562 113.366C56.3629 131.472 51.8542 156.051 54.5889 181.748Z" fill="#FFBD14"/>
<path d="M121.514 220.124C126.466 222.265 125.754 229.854 120.198 230.547C115.251 231.165 106.942 225.697 102.395 223.785C86.2101 216.98 65.8641 210.066 54.8353 195.585C48.3934 187.126 47.7954 176.244 47.3064 165.979C46.1503 141.709 51.4579 119.653 60.5505 97.414C62.3913 92.9117 64.2292 88.4071 65.9893 83.8725C66.5986 82.3026 67.2021 80.7297 67.7658 79.1428C68.04 78.371 68.6988 76.0057 68.5289 76.807C68.4065 77.3845 68.4871 79.1669 68.4639 78.5769C68.3228 74.9869 70.2191 71.6654 73.7956 70.586C77.1756 69.5659 80.9162 71.1034 82.6058 74.1957C88.4172 84.8319 89.3067 96.8172 97.6913 106.574C120.666 133.31 149.693 139.45 144.749 180.071C143.92 186.88 142.368 193.584 139.964 200.013C136.234 209.988 129.206 218.12 124.421 227.499C121.525 233.176 112.583 229.986 114.3 223.733C115.134 220.694 122.877 216.23 125.155 212.005C132.764 197.895 136.403 180.268 134.671 164.331C133.05 149.407 114.746 138.882 104.447 130.249C86.0712 114.846 75.7004 103.075 68.7527 80.0104C68.4534 79.0166 69.2653 82.4161 70.2514 82.7395C73.4572 83.7909 77.2214 85.4122 80.292 84.0145C81.6266 83.4071 83.6176 73.4488 83.5377 77.9096C83.3853 86.4148 77.9044 96.16 74.874 103.925C73.7857 106.714 72.68 109.496 71.5617 112.272C71.2367 113.079 70.9101 113.885 70.5823 114.691C70.3558 115.247 69.6818 116.92 69.9003 116.36C70.2317 115.51 69.624 117.23 69.549 117.458C68.9353 119.32 68.3556 121.192 67.8072 123.074C66.4166 127.847 65.23 132.677 64.2068 137.541C61.543 150.203 56.2093 175.748 61.8202 187.568C72.3637 209.778 101.684 211.553 121.514 220.124Z" fill="#FF8E22"/>
<path d="M115.973 174.432C117.342 184.447 110.474 193.658 100.632 195.004C90.79 196.35 81.7011 189.322 80.3313 179.306C78.9616 169.291 83.1995 149.404 87.7782 140.78C96.1528 147.632 114.603 164.416 115.973 174.432Z" fill="#FF8B00"/>
<path d="M112.841 174.922C112.43 171.384 117.41 169.791 118.879 173.167C119.94 175.605 119.213 179.452 118.571 181.928C115.921 192.138 105.707 199.019 95.2409 197.181C93.0603 196.798 90.9384 196.04 89.0064 194.959C73.6647 186.376 78.4765 165.597 82.1937 151.804C83.2564 147.861 84.4283 143.68 86.4126 140.082C87.2416 138.579 89.6364 139.362 89.2803 141.089C89.0384 142.263 88.1091 143.516 87.6394 144.631C86.6187 147.054 85.7891 149.557 85.064 152.083C82.642 160.521 79.7122 173.314 82.658 181.898C87.3626 195.609 106.869 196.826 112.068 182.845C113.031 180.258 113.157 177.637 112.841 174.922ZM86.7897 141.952C85.5369 140.839 86.7523 138.718 88.3473 139.356C89.9529 139.997 91.5766 141.883 92.8927 142.992C96.292 145.854 99.6081 148.818 102.818 151.892C108.339 157.18 117.671 165.919 119.071 173.762C119.608 176.776 115.91 178.93 113.693 176.633C112.587 175.488 112.701 173.32 112.2 171.827C111.307 169.162 109.793 166.721 108.2 164.424C102.264 155.867 94.5244 148.828 86.7897 141.952Z" fill="#FF800C"/>
<path d="M31.9915 246.422C40.739 263.067 78.4678 257.933 87.5643 258.354C93.53 243.28 92.0994 226.513 85.0564 211.658C82.4477 206.156 75.8468 201.671 72.0471 200.443C68.2474 199.216 57.3677 195.189 41.8244 189.758C29.3897 185.413 18.4327 170.179 18.5578 170.394C19.3704 171.789 19.0336 197.545 19.0272 198.029L19.0271 198.036C19.6951 211.945 23.2441 229.778 31.9915 246.422Z" fill="#FFBD14"/>
<path d="M87.5538 254.41C91.4777 254.528 93.0334 259.851 89.4622 261.812C86.2818 263.557 79.1953 262.09 75.6063 262.018C62.8343 261.76 47.2185 262.546 35.8724 255.713C29.2451 251.722 25.9194 244.523 22.8333 237.712C15.5363 221.609 13.2051 205.268 13.3844 187.787C13.4207 184.248 13.4545 180.708 13.4275 177.169C13.4182 175.944 13.4041 174.718 13.3593 173.494C13.3375 172.898 13.1481 171.122 13.2484 171.709C13.3206 172.132 13.8535 173.316 13.6795 172.923C12.6203 170.533 13.0112 167.778 15.1402 166.088C17.1522 164.491 20.0946 164.526 22.0674 166.164C28.8528 171.797 32.6717 179.664 40.9613 184.012C63.6757 195.925 84.9543 192.286 92.5152 221.085C93.7826 225.912 94.533 230.863 94.6328 235.856C94.7879 243.603 92.2181 250.989 91.4997 258.617C91.0649 263.233 84.1614 263.476 83.6436 258.787C83.392 256.507 87.4305 251.41 87.837 247.941C89.195 236.356 86.924 223.458 81.4748 213.145C76.372 203.487 61.1681 201.283 51.8852 198.209C35.3232 192.725 25.1498 187.549 14.2596 173.815C13.7904 173.224 15.252 175.305 16.0058 175.259C18.456 175.109 21.437 175.195 23.1384 173.426C23.8779 172.657 22.5512 165.387 23.6946 168.426C25.8747 174.219 24.784 182.28 24.8191 188.346C24.8317 190.524 24.8307 192.702 24.8197 194.88C24.8165 195.513 24.812 196.145 24.8066 196.778C24.8028 197.215 24.796 198.527 24.7934 198.09C24.7896 197.427 24.8402 198.753 24.8506 198.927C24.9353 200.351 25.046 201.773 25.1804 203.193C25.521 206.794 26.0151 210.379 26.6288 213.943C28.2264 223.221 31.4767 241.929 38.4442 248.416C51.5368 260.607 71.8419 253.936 87.5538 254.41Z" fill="#FF8E22"/>
<path d="M71.5404 224.997C75.1553 231.403 72.9829 239.475 66.6882 243.028C60.3934 246.58 52.3601 244.267 48.7452 237.861C45.1302 231.455 42.6578 216.869 43.4394 209.807C50.9424 212.193 67.9255 218.591 71.5404 224.997Z" fill="#FF8B00"/>
<path d="M69.5539 226.17C68.3258 223.888 71.2662 221.474 73.1659 223.363C74.5378 224.727 75.0793 227.524 75.3094 229.371C76.2583 236.987 71.198 244.382 63.6262 245.949C62.0487 246.275 60.4101 246.332 58.8134 246.12C46.134 244.434 43.8101 229.089 42.6215 218.763C42.2816 215.811 41.9519 212.669 42.328 209.703C42.4851 208.464 44.315 208.351 44.5378 209.615C44.6892 210.473 44.3972 211.57 44.3788 212.45C44.339 214.363 44.4499 216.279 44.6377 218.182C45.2646 224.538 46.7174 233.976 51.0141 238.991C57.8762 247 71.3948 242.588 71.1582 231.737C71.1144 229.729 70.4965 227.922 69.5539 226.17ZM43.0851 210.867C41.9389 210.45 42.1917 208.69 43.4414 208.693C44.6995 208.696 46.3039 209.535 47.4915 209.932C50.5589 210.955 53.5971 212.069 56.5928 213.287C61.7463 215.381 70.4036 218.786 73.4554 223.714C74.6283 225.608 72.7053 228.057 70.5888 227.099C69.534 226.622 69.0289 225.125 68.2899 224.25C66.9703 222.687 65.291 221.443 63.5969 220.317C57.2857 216.123 50.1618 213.441 43.0851 210.867Z" fill="#FF800C"/>
<mask id="mask0" mask-type="alpha" maskUnits="userSpaceOnUse" x="0" y="0" width="401" height="401">
<circle cx="200.112" cy="200.112" r="163.391" transform="rotate(-15 200.112 200.112)" fill="#C1D391"/>
</mask>
<g mask="url(#mask0)">
<path d="M315.256 320.606C313.69 325.018 308.905 327.347 304.569 325.807C300.233 324.268 297.989 319.443 299.555 315.031C301.122 310.619 307.095 303.338 310.813 300.764C312.802 305.364 316.823 316.194 315.256 320.606Z" fill="#FF8B00"/>
<path d="M313.862 320.143C314.445 318.6 316.833 319.003 316.719 320.705C316.637 321.934 315.52 323.362 314.729 324.244C311.468 327.881 305.802 328.54 301.886 325.558C301.07 324.936 300.359 324.173 299.794 323.317C295.307 316.523 301.706 308.997 306.169 304.113C307.445 302.716 308.817 301.245 310.398 300.187C311.059 299.745 311.878 300.577 311.364 301.212C311.015 301.643 310.366 301.961 309.935 302.32C309 303.1 308.126 303.953 307.291 304.838C304.5 307.795 300.573 312.435 299.959 316.594C298.979 323.235 306.746 327.885 311.859 323.238C312.805 322.379 313.415 321.327 313.862 320.143ZM310.156 301.037C309.877 300.312 310.828 299.698 311.349 300.3C311.873 300.905 312.14 302.027 312.446 302.763C313.235 304.663 313.969 306.588 314.636 308.535C315.783 311.886 317.764 317.466 316.672 320.991C316.252 322.345 314.272 322.444 313.848 321.028C313.637 320.322 314.145 319.454 314.256 318.733C314.456 317.447 314.352 316.12 314.185 314.836C313.563 310.053 311.876 305.511 310.156 301.037Z" fill="#FF800C"/>
<path d="M278.688 324.522C273.206 342.508 303.644 365.385 309.816 372.08C324.657 365.556 335.429 352.627 340.865 337.112C342.879 331.365 341.338 323.535 339.499 319.99C337.661 316.445 332.755 305.933 325.522 291.142C319.734 279.309 322.654 260.773 322.591 261.014C322.188 262.577 303.84 280.655 303.495 280.995L303.49 281C294.186 291.36 284.171 306.536 278.688 324.522Z" fill="#FFBD14"/>
<path d="M312.582 369.268C315.289 372.111 312.653 376.99 308.735 375.873C305.246 374.878 301.239 368.852 298.737 366.277C289.836 357.114 278.179 346.694 274.916 333.857C273.01 326.359 275.706 318.902 278.3 311.889C284.434 295.308 294.265 282.049 306.684 269.744C309.198 267.253 311.711 264.76 314.18 262.224C315.035 261.347 315.887 260.465 316.716 259.563C317.119 259.124 318.233 257.728 317.892 258.216C317.645 258.568 317.192 259.784 317.344 259.383C318.272 256.938 320.487 255.254 323.189 255.549C325.743 255.828 327.81 257.922 328.061 260.474C328.926 269.25 326.11 277.529 328.948 286.449C336.723 310.891 354.413 323.264 339.541 349.059C337.048 353.383 334.101 357.431 330.661 361.051C325.324 366.67 318.304 370.115 312.43 375.034C308.875 378.011 303.795 373.33 306.724 369.631C308.148 367.833 314.604 367.048 317.331 364.867C326.442 357.584 333.896 346.816 337.273 335.651C340.435 325.196 331.173 312.938 326.733 304.226C318.812 288.681 315.218 277.847 317.13 260.425C317.212 259.674 316.788 262.182 317.357 262.679C319.204 264.295 321.263 266.452 323.717 266.39C324.784 266.363 328.951 260.262 327.628 263.226C325.106 268.878 318.662 273.844 314.422 278.181C312.9 279.739 311.368 281.287 309.829 282.828C309.381 283.276 308.933 283.723 308.484 284.169C308.174 284.477 307.247 285.405 307.553 285.092C308.016 284.618 307.12 285.597 307.005 285.728C306.064 286.8 305.143 287.889 304.24 288.993C301.95 291.793 299.781 294.69 297.712 297.656C292.324 305.377 281.482 320.965 281.875 330.477C282.614 348.351 301.743 357.884 312.582 369.268Z" fill="#FF8E22"/>
<path d="M321.875 337.094C319.942 344.191 312.722 348.403 305.748 346.504C298.774 344.604 294.688 337.311 296.621 330.214C298.555 323.117 307.053 311.006 312.573 306.535C316.231 313.507 323.809 329.997 321.875 337.094Z" fill="#FF8B00"/>
<path d="M319.638 336.531C320.369 334.045 324.157 334.396 324.18 337.074C324.197 339.009 322.615 341.379 321.48 342.854C316.8 348.936 308.002 350.637 301.516 346.428C300.165 345.551 298.96 344.439 297.974 343.165C290.143 333.051 299.28 320.506 305.694 312.328C307.528 309.99 309.503 307.524 311.856 305.679C312.839 304.908 314.219 306.115 313.489 307.17C312.994 307.887 312.015 308.461 311.383 309.074C310.009 310.407 308.741 311.847 307.537 313.332C303.514 318.293 297.911 326.025 297.44 332.613C296.688 343.133 309.404 349.5 316.865 341.617C318.246 340.159 319.077 338.44 319.638 336.531ZM311.576 307.039C311.054 305.936 312.471 304.863 313.358 305.743C314.251 306.63 314.801 308.355 315.367 309.472C316.829 312.356 318.206 315.285 319.48 318.257C321.672 323.369 325.434 331.878 324.139 337.528C323.641 339.699 320.552 340.089 319.721 337.919C319.306 336.838 319.999 335.419 320.089 334.277C320.249 332.238 319.931 330.172 319.517 328.18C317.978 320.761 314.799 313.845 311.576 307.039Z" fill="#FF800C"/>
<path d="M56.0225 250.685C58.0263 231.765 60.9075 229.969 66.4653 226.216C110.355 196.582 197.892 188.02 206.328 187.255C206.722 187.219 207.002 187.525 207.021 187.92L215.483 360.414C215.497 360.697 215.339 360.96 215.083 361.081L95.8819 417.268C95.7887 417.311 95.6871 417.334 95.584 417.334C82.1729 417.31 68.0722 414.131 61.222 401.517C54.0562 388.321 47.3272 332.786 56.0225 250.685Z" fill="#D47C4A"/>
<path fill-rule="evenodd" clip-rule="evenodd" d="M206.013 183.773C208.83 183.518 210.419 185.843 210.513 187.748L218.975 360.243L215.483 360.414L218.975 360.243C219.058 361.939 218.11 363.518 216.574 364.242L97.3729 420.429C96.8153 420.692 96.2027 420.831 95.5781 420.829C81.8952 420.804 65.9752 417.594 58.1506 403.185C56.0775 399.367 54.2381 392.956 52.7239 384.547C51.1904 376.031 49.9364 365.142 49.185 352.142C47.6818 326.136 48.1813 291.535 52.5468 250.316C53.5521 240.825 54.8152 235.082 56.7942 231.181C58.8456 227.137 61.57 225.301 64.2491 223.494C64.336 223.436 64.4229 223.377 64.5097 223.319C87.0547 208.097 120.487 198.442 148.977 192.488C177.586 186.509 201.727 184.162 206.013 183.773ZM203.674 191.024C195.539 191.853 174.584 194.278 150.407 199.331C122.048 205.258 89.7668 214.701 68.4218 229.113C65.6261 231 64.242 231.953 63.0289 234.344C61.6769 237.009 60.4975 241.625 59.499 251.053C55.1692 291.935 54.6855 326.153 56.1644 351.738C56.9041 364.534 58.1325 375.135 59.6043 383.308C61.0955 391.589 62.7844 397.068 64.2942 399.849C70.0769 410.497 82.0633 413.713 94.966 413.835L211.9 358.716L203.674 191.024ZM94.397 414.103C94.3952 414.104 94.3935 414.105 94.3917 414.105L94.3919 414.105L94.397 414.103Z" fill="black"/>
<path fill-rule="evenodd" clip-rule="evenodd" d="M180.887 396.398L208.078 399.044V518.181C208.078 520.089 207.422 522.782 205.036 524.965C202.667 527.133 199.069 528.361 194.061 528.361C189.622 528.361 186.184 526.997 183.883 524.934C181.924 523.177 180.443 520.493 180.887 517.825V396.398ZM187.878 404.102V518.644L187.835 518.801C187.88 518.928 188.03 519.262 188.55 519.729C189.376 520.47 191.068 521.37 194.061 521.37C197.999 521.37 199.662 520.407 200.317 519.807C200.956 519.223 201.087 518.573 201.087 518.181V405.388L187.878 404.102Z" fill="#1A1A1A"/>
<path d="M123.737 397.901C127.259 396.492 130.483 400.962 127.558 403.652C126.008 405.078 122.756 406.094 120.853 406.989C116.57 409.005 112.158 411.288 107.892 413.099C104.497 414.54 101.146 410.422 103.79 407.569C105.091 406.165 108.711 404.977 110.467 404.15C114.856 402.084 119.227 399.705 123.737 397.901ZM106.098 406.457C109.092 406.361 111.067 409.835 109.02 412.227C107.128 414.437 101.936 413.075 101.13 416.812C100.712 418.749 101.088 421.086 101.116 423.057C101.185 427.871 101.515 432.704 101.482 437.517C101.455 441.444 96.2327 443.248 94.0827 439.739C93.3527 438.547 93.5078 437.2 93.5495 435.877C93.629 433.355 93.7027 430.832 93.7631 428.31C93.8249 425.732 93.8646 423.153 93.8943 420.574C93.9162 418.679 93.7923 416.74 94.2904 414.892C95.6404 409.882 101.076 406.619 106.098 406.457ZM95.8709 441.304C92.1229 439.421 93.2323 433.513 97.6298 433.659C100.27 433.746 103.002 434.459 105.607 434.849C110.866 435.636 116.125 436.425 121.386 437.203C137.864 439.641 154.309 442.219 170.716 445.097C187.58 448.055 204.417 451.165 221.244 454.324C226.821 455.371 232.396 456.426 237.97 457.485C240.631 457.991 243.38 458.348 246.007 459.017C253.524 460.932 252.593 471.82 244.844 471.996C242.898 472.04 240.788 471.382 238.899 471.029C235.196 470.336 231.494 469.641 227.792 468.943C216.293 466.777 204.799 464.586 193.313 462.35C170.42 457.893 147.587 453.215 124.855 447.994C118.389 446.509 111.927 445.008 105.456 443.546C103.286 443.055 101.117 442.563 98.9471 442.075C97.9907 441.86 96.7626 441.752 95.8709 441.304ZM247.669 471.284C241.12 474.203 234.927 466.488 239.824 461.053C241.727 458.941 246.494 457.27 249.115 455.994C255.963 452.661 262.814 449.334 269.666 446.009C285.385 438.382 301.114 430.773 316.852 423.184C321.991 420.706 327.131 418.229 332.272 415.756C334.753 414.562 337.242 413.084 339.829 412.127C346.197 409.773 351.284 417.758 346.059 422.203C344.997 423.107 343.533 423.659 342.298 424.277C339.974 425.441 337.648 426.6 335.323 427.762C328.079 431.382 320.831 434.994 313.583 438.604C298.951 445.892 284.31 453.16 269.662 460.414C262.408 464.006 254.919 468.053 247.669 471.284ZM348.16 417.321C348.13 423.798 339.579 426.207 336.753 420.186C336.32 419.264 336.198 418.327 336.194 417.321C336.193 417.238 336.185 417.653 336.186 417.57C336.199 414.742 336.23 411.914 336.252 409.087C336.292 403.949 336.335 398.811 336.378 393.674C336.399 391.203 336.181 388.599 336.451 386.139C337.153 379.725 346.077 378.717 347.727 385.037C348.391 387.58 347.969 392.995 347.992 395.696C348.053 402.987 348.134 410.279 348.168 417.57C348.168 417.618 348.166 417.473 348.164 417.425C348.163 417.39 348.16 417.127 348.16 417.321ZM343.701 380.956C349.947 383.082 348.874 392.186 342.208 392.222C341.427 392.226 340.726 392.042 339.995 391.791C339.911 391.762 340.161 391.857 340.244 391.887C340.371 391.932 339.99 391.798 339.863 391.753C339.585 391.655 339.307 391.557 339.028 391.459C338.183 391.162 337.338 390.865 336.492 390.567C334.018 389.696 331.543 388.825 329.068 387.954C323.28 385.917 317.493 383.876 311.706 381.837C308.872 380.838 305.764 380.069 303.046 378.773C297.626 376.187 299.417 368.036 305.49 368.451C306.954 368.551 308.496 369.268 309.872 369.724C312.535 370.607 315.199 371.489 317.862 372.372C323.692 374.305 329.521 376.24 335.351 378.174C337.258 378.807 339.164 379.441 341.071 380.074C341.715 380.288 342.358 380.502 343.002 380.715C343.231 380.791 343.461 380.868 343.69 380.944C343.779 380.974 344.045 381.062 343.956 381.033C343.872 381.005 343.263 380.807 343.701 380.956ZM305.363 368.444C311.554 369.094 312.416 377.706 306.286 379.063C305.569 379.222 304.888 379.191 304.166 379.105C304.082 379.094 304.501 379.153 304.417 379.144C302.058 378.876 299.704 378.568 297.347 378.28C290.781 377.479 284.216 376.674 277.65 375.87C264.247 374.229 250.845 372.579 237.442 370.934C232.946 370.383 228.45 369.832 223.955 369.277C221.853 369.017 219.588 368.97 217.523 368.477C212.7 367.325 212.653 360.455 217.628 359.646C219.897 359.278 224.322 360.172 226.623 360.406C232.798 361.036 238.974 361.661 245.15 362.29C265.303 364.343 285.483 366.22 305.616 368.462C305.7 368.471 304.96 368.402 305.363 368.444ZM216.541 359.968C221.514 358.079 225.283 364.535 221.002 367.683C219.914 368.482 218.331 368.88 217.017 369.386C214.375 370.403 211.735 371.421 209.094 372.438C201.022 375.55 192.949 378.659 184.877 381.77C171.82 386.802 158.764 391.84 145.711 396.885C141.411 398.547 137.112 400.211 132.812 401.875C130.687 402.698 128.565 403.683 126.389 404.364C122.452 405.595 119.779 400.083 123.497 398.023C124.833 397.282 126.386 396.82 127.795 396.246C130.648 395.084 133.5 393.922 136.352 392.759C145.002 389.229 153.652 385.699 162.299 382.164C174.383 377.225 186.465 372.283 198.545 367.335C204.496 364.897 210.627 362.215 216.541 359.968Z" fill="#1A1A1A"/>
<path d="M106.358 409.95L125.19 401.08L218.346 364.072L305.123 373.815L342.176 386.487V417.641L244.694 465.442L97.4883 437.653V417.641C97.4883 412.013 103.402 410.169 106.358 409.95Z" fill="#D47C4A"/>
<path fill-rule="evenodd" clip-rule="evenodd" d="M217.868 360.499L305.893 370.383L345.672 383.986V419.818L245.189 469.091L93.9932 440.549V417.639C93.9932 413.354 96.3391 410.493 98.9204 408.828C101.096 407.425 103.555 406.763 105.41 406.532L123.799 397.871L217.868 360.499ZM218.825 367.641L126.582 404.288L107.262 413.387L106.616 413.435C105.561 413.513 103.947 413.905 102.709 414.703C101.595 415.422 100.984 416.297 100.984 417.639V434.754L244.2 461.79L338.68 415.46V388.984L304.354 377.245L218.825 367.641Z" fill="#1A1A1A"/>
<path fill-rule="evenodd" clip-rule="evenodd" d="M201.553 122.816C201.168 122.841 200.823 122.864 200.522 122.878C199.982 122.904 199.3 123.169 198.547 123.588C197.794 124.006 196.976 124.574 196.165 125.202C194.544 126.459 192.955 127.949 191.987 128.939L191.925 128.878C192.894 127.886 194.486 126.393 196.112 125.133C196.925 124.504 197.747 123.932 198.504 123.511C199.26 123.091 199.957 122.818 200.518 122.791C200.818 122.777 201.162 122.754 201.547 122.729C204.694 122.523 210.552 122.138 216.791 124.673C217.861 125.108 218.801 125.479 219.632 125.807C221.514 126.551 222.837 127.073 223.835 127.608C224.556 127.995 225.11 128.389 225.586 128.88C226.062 129.37 226.457 129.956 226.863 130.723C228.48 133.783 229.884 137.245 229.402 140.973L229.315 140.962C229.794 137.262 228.401 133.821 226.785 130.764C226.382 130.001 225.991 129.423 225.523 128.941C225.056 128.458 224.509 128.069 223.794 127.685C222.8 127.152 221.485 126.633 219.607 125.891C218.775 125.563 217.832 125.19 216.758 124.754C210.539 122.227 204.701 122.61 201.553 122.816Z" fill="black"/>
<path fill-rule="evenodd" clip-rule="evenodd" d="M255.469 109.402C259.044 104.071 263.873 98.6386 268.595 97.8859C277.64 96.444 284.98 97.3179 291.229 103.26C297.477 109.203 300.623 118.553 298.045 125.632C296.808 129.028 293.077 133.412 289.375 137.132C291.305 140.006 293.11 143.052 294.768 146.255C301.802 159.851 299.153 179.585 295.177 200.473L344.798 220.579C342.074 229.886 329.88 249.583 302.895 253.918C297.794 254.737 292.611 255.07 287.483 255.035C288.143 268.893 292.362 284.963 296.611 301.145C302.944 325.266 309.343 349.637 304.118 367.304C303.873 368.134 303.614 368.955 303.341 369.767C306.043 370.674 308.857 372.134 311.546 374.383C321.946 383.078 329.243 396.579 329.243 405.274C329.243 412.23 327.844 423.466 327.145 428.214C336.874 425.65 357.792 421.293 363.63 424.369C370.927 428.214 374.379 430.573 376.126 435.817C377.874 441.06 379.622 448.313 376.126 456.309C372.631 464.305 368.786 467.67 363.63 469.505C355.829 472.281 353.328 472.542 346.623 473.24C344.642 473.446 342.295 473.69 339.336 474.049C322.932 476.037 302.895 469.811 299.05 461.858C296.923 457.46 298.406 445.066 299.808 433.345C300.941 423.876 302.021 414.846 301.103 410.824C299.428 403.479 296.385 395 292.307 390.633C288.861 395.227 284.974 399.369 280.825 403.057C282.081 404.859 283.185 407.219 283.669 410.212C284.242 413.75 283.033 431.027 281.961 446.347C281.232 456.758 280.567 466.265 280.567 469.942C280.567 481.861 305.322 484.267 317.014 485.403H317.014C318.909 485.587 320.461 485.738 321.509 485.89C328.412 486.895 335.272 492.444 335.272 498.081C335.272 503.717 330.728 520.671 313.076 524.035C297.046 527.09 280.567 522.674 273.663 518.093C268.988 514.99 245.524 497.775 245.219 491.833C244.913 485.89 252.079 441.147 253.651 436.166C255.224 431.185 250.855 429.612 243.034 429.612C235.213 429.612 200.956 424.631 195.32 422.752C195.273 422.736 195.226 422.72 195.179 422.703C186.85 420.737 179.342 417.969 173.767 414.675C152.975 415.561 117.082 403.697 97.6633 364.464C82.6762 334.184 77.2665 320.727 71.9711 260.909C69.6116 234.255 73.853 184.619 78.0009 172.297C80.9721 163.471 97.6633 157.528 113.481 180.599C122.231 193.362 127.621 202.565 140.731 237.037C141.071 225.962 142.524 210.484 147.387 188.158C149.201 179.829 152.348 171.947 156.225 164.694C153.306 161.341 150.748 156.784 149.659 151.105C147.256 138.565 151.931 124.496 160.146 121.088C168.36 117.679 178.803 117.155 182.78 119.121C184.714 120.078 187.58 122.183 190.209 124.45C191.17 123.705 192.076 123.035 192.917 122.442C209.608 110.675 228.838 107.28 242.728 107.28C246.947 107.28 251.227 108.01 255.469 109.402Z" fill="#404040"/>
<path opacity="0.55" d="M210.394 288.66C210.406 288.539 210.52 289.627 210.526 289.78C210.558 290.536 210.594 291.292 210.635 292.047C210.757 294.349 210.911 296.648 211.081 298.946C211.588 305.791 212.249 312.624 212.968 319.449C213.496 324.464 214.083 329.471 214.646 334.481C215.109 338.598 215.432 342.875 216.653 346.854C217.304 348.974 218.57 350.955 219.555 352.937C221.35 356.545 223.124 360.167 225.127 363.666C228.844 370.16 233.606 376.901 240.75 379.881C240.785 379.896 240.785 379.947 240.75 379.962C240.512 380.062 239.664 379.629 239.417 379.54C238.479 379.202 237.566 378.803 236.677 378.352C234.07 377.029 231.703 375.255 229.554 373.284C223.077 367.345 218.417 359.771 213.69 352.449C209.471 345.913 208.684 337.638 208.352 330.027C207.75 316.241 209.096 302.372 210.394 288.66Z" fill="url(#paint0_linear)"/>
<path opacity="0.45" d="M121.16 194.909C123.087 198.211 118.978 201.974 115.957 199.448C115.023 198.668 114.683 197.4 114.238 196.308C113.361 194.153 112.483 191.992 111.452 189.905C109.939 186.84 108.229 183.848 106.302 181.024C105.676 180.108 105.025 179.204 104.303 178.36C104.047 178.061 103.782 177.768 103.494 177.499C103.366 177.379 102.935 177.075 103.088 177.162C103.175 177.211 102.903 177.088 102.81 177.051C102.582 176.958 102.356 176.862 102.131 176.764C101.491 176.484 100.859 176.186 100.23 175.883C98.3462 174.976 96.4424 173.969 94.3635 173.599C93.3484 173.419 92.3275 173.475 91.3024 173.467C90.9793 173.465 90.6561 173.459 90.3329 173.462C90.2811 173.463 89.7121 173.468 89.8858 173.468C89.9016 173.468 89.8598 173.485 89.8473 173.495C89.5758 173.702 89.3487 173.977 89.1258 174.233C88.6383 174.793 88.176 175.375 87.7112 175.953C86.3392 177.661 85.3902 179.454 84.7649 181.563C83.9284 184.383 83.5503 187.341 83.2962 190.265C81.9651 205.58 82.4345 221.156 82.7982 236.498C83.0506 247.151 83.8834 257.713 84.6295 268.33C85.1779 276.135 85.4669 283.981 86.6375 291.726C87.6771 298.604 89.6381 305.328 91.056 312.137C93.555 324.138 96.1729 336.151 100.639 347.604C105.512 360.099 113.164 371.118 121.076 381.861C123.211 384.759 125.392 387.631 127.718 390.38C128.535 391.346 129.991 393.198 130.792 393.684C133.717 395.459 132.804 400.178 129.191 400.249C127.461 400.283 126.055 398.93 124.897 397.799C122.061 395.031 119.534 391.934 117.045 388.857C106.687 376.049 97.126 362.868 91.132 347.395C86.6793 335.9 83.9891 323.861 81.5081 311.819C80.1438 305.196 78.4409 298.669 77.7178 291.933C76.8514 283.863 76.886 275.732 76.6508 267.629C76.491 262.121 76.1705 256.627 76.1363 251.116C76.049 237.086 76.5345 223.055 76.907 209.032C77.1461 200.033 76.221 185.659 80.2578 177.11C81.5103 174.457 84.8083 169.736 87.7406 168.544C88.9575 168.048 90.2474 168.148 91.5279 168.21C95.6578 168.409 98.8518 169.675 102.493 171.537C103.924 172.268 105.475 172.772 106.675 173.873C108.23 175.299 109.455 177.106 110.645 178.834C112.681 181.793 114.533 184.874 116.5 187.878C118.036 190.223 119.746 192.486 121.16 194.909Z" fill="url(#paint1_linear)"/>
<path opacity="0.45" d="M256.322 116.953C256.246 116.923 257.023 116.943 257.163 116.959C257.756 117.03 258.348 117.113 258.939 117.202C260.703 117.466 262.455 117.816 264.186 118.242C269.472 119.542 274.526 121.652 278.765 125.126C283.109 128.688 286.091 133.493 288.548 138.483C291.714 144.911 294.369 152.069 295.229 159.219C295.46 161.138 295.387 163.09 295.444 165.018C295.449 165.181 295.041 164.57 295.013 164.53C294.759 164.159 294.486 163.8 294.218 163.439C293.4 162.34 292.542 161.27 291.805 160.114C289.619 156.688 287.77 153.044 285.9 149.44C283.039 143.923 280.407 138.068 276.74 133.024C272.204 126.787 263.515 119.878 256.322 116.953Z" fill="url(#paint2_linear)"/>
<path d="M256.461 106.215C259.517 107.23 259.535 111.731 256.366 112.616C254.647 113.096 250.988 111.518 249.082 111.152C244.871 110.343 240.596 110.412 236.33 110.706C219.815 111.844 205.538 117.369 192.247 127.056C189.28 129.219 185.313 125.594 187.519 122.52C188.715 120.852 193.332 118.209 194.614 117.388C195.334 116.926 196.081 116.509 196.815 116.071C204.311 111.604 212.859 108.419 221.375 106.566C232.725 104.097 245.175 102.467 256.461 106.215ZM192.374 121.946C194.716 124.058 193.033 128.109 189.826 127.737C188.429 127.575 187.45 126.434 186.406 125.605C184.399 124.011 182.166 122.101 179.571 121.643C174.985 120.835 169.947 121.637 165.517 122.88C163.369 123.482 161.07 124.152 159.326 125.602C155.939 128.417 154.171 132.98 153.242 137.161C151.225 146.227 152.812 155.509 158.544 162.806C160.446 165.229 157.781 168.738 154.945 167.395C153.685 166.798 152.693 165.224 151.899 164.12C149.255 160.444 147.229 156.177 146.402 151.702C144.644 142.183 145.898 129.738 152.807 122.32C157.925 116.825 166.152 114.978 173.439 114.651C176.754 114.502 180.175 114.561 183.331 115.704C186.651 116.906 189.789 119.615 192.374 121.946ZM153.551 163.356C155.188 160.181 160.17 162.183 159.071 165.607C158.666 166.871 157.771 168.063 157.16 169.239C155.938 171.587 154.81 173.984 153.793 176.428C151.053 183.014 149.452 189.839 148.066 196.825C145.425 210.131 143.838 223.537 143.436 237.092C143.341 240.297 138.54 240.629 138.055 237.443C137.676 234.95 138.434 230.112 138.663 227.46C139.266 220.464 140.258 213.506 141.389 206.578C143.819 191.689 146.582 176.869 153.551 163.356ZM143.271 236.103C144.45 239.34 139.501 241.235 138.217 238.038C134.03 227.614 129.836 217.182 124.927 207.07C121.146 199.28 116.782 191.883 111.799 184.804C108.657 180.34 105.282 176.003 100.834 172.757C96.1195 169.317 86.4452 166.024 82.7984 172.837C81.841 174.626 81.5775 176.981 81.2172 178.932C80.4101 183.303 79.8608 187.722 79.3751 192.138C77.7236 207.155 76.8067 222.302 76.5518 237.406C76.3603 248.75 76.9904 259.925 78.0357 271.219C78.9836 281.46 80.0584 291.699 81.5997 301.87C83.0949 311.736 85.0735 321.544 88.1127 331.06C90.8014 339.479 94.3335 347.58 98.0875 355.57C101.646 363.145 105.318 370.594 110.261 377.386C121.23 392.457 137.09 403.932 155.169 408.751C161.279 410.379 167.402 411.04 173.707 410.973C178.052 410.927 178.797 417.392 174.533 418.295C172.45 418.737 169.755 418.371 167.649 418.281C162.813 418.073 158.047 417.023 153.361 415.891C133.264 411.039 116.549 398.181 103.838 382.297C96.6312 373.293 91.5562 362.337 86.7818 351.895C82.9645 343.545 79.427 335.032 77.0209 326.153C72.8595 310.795 70.5914 295.14 68.7036 279.361C67.739 271.299 66.7423 263.147 66.397 255.028C65.6718 237.972 66.2421 220.783 68.0299 203.804C68.8653 195.87 69.8654 187.978 71.2849 180.126C72.0969 175.634 72.9304 170.538 75.7622 166.796C84.0683 155.817 99.6875 159.907 108.205 168.296C113.446 173.459 117.528 179.495 121.286 185.79C130.696 201.551 137.009 218.917 143.271 236.103ZM171.896 417.869C168.565 415.83 170.309 410.476 174.258 411.006C175.814 411.214 180.111 413.826 181.946 414.595C186.518 416.51 191.25 417.826 196.043 419.045C199.907 420.028 199.767 425.786 195.761 426.415C193.85 426.715 190.614 425.423 188.713 424.87C182.93 423.185 177.055 421.025 171.896 417.869ZM193.879 426.229C190.281 424.703 190.901 419.131 195.011 418.948C196.267 418.892 198.235 419.643 199.236 419.855C202.133 420.468 205.056 420.963 207.977 421.442C216.473 422.836 225.011 424.038 233.567 424.992C236.277 425.294 238.997 425.593 241.722 425.725C246.167 425.942 251.406 425.557 255.09 428.578C259.498 432.191 257.145 437.499 256.23 442.129C254.766 449.54 253.485 456.99 252.226 464.438C251.106 471.069 250.011 477.709 249.116 484.375C248.937 485.708 248.01 490.481 248.401 491.751C249.334 494.783 254.681 499.349 256.995 501.43C260.509 504.588 264.187 507.564 267.93 510.446C273.435 514.684 278.053 517.967 284.812 519.95C295.538 523.096 312.113 524.33 321.76 517.839C324.272 516.15 326.408 513.948 328.115 511.455C329.335 509.673 330.33 507.739 331.112 505.728C332.067 503.272 333.119 500.161 332.783 497.471C332.194 492.763 326.542 489.497 322.402 488.514C320.559 488.077 318.651 488.021 316.777 487.793C314.613 487.529 313.815 484.656 315.675 483.408C317.141 482.423 322.997 483.675 324.576 484.099C325.339 484.304 326.181 484.606 326.903 484.928C327.963 485.401 329.021 485.895 329.996 486.53C331.267 487.358 332.523 488.246 333.58 489.344C335.343 491.172 336.835 493.27 337.44 495.777C338.117 498.585 337.461 501.541 336.778 504.279C335.06 511.172 330.585 518.257 324.506 522.076C313.592 528.932 299.551 528.558 287.311 526.129C283.114 525.296 278.75 523.99 274.945 522C269.179 518.986 263.908 514.682 258.851 510.635C253.781 506.577 246.06 500.875 243.011 495.069C240.999 491.239 242.467 484.788 242.911 480.717C244.06 470.177 245.557 459.643 247.291 449.183C247.882 445.616 248.441 442.034 249.188 438.495C249.343 437.765 249.702 434.948 250.139 434.296C250.189 434.222 250.218 434.456 250.256 434.536C250.307 434.645 250.054 434.401 249.946 434.349C249.714 434.239 249.489 434.156 249.243 434.082C248.415 433.831 247.55 433.705 246.692 433.618C244.311 433.376 241.912 433.495 239.527 433.297C231.419 432.624 223.358 431.489 215.313 430.294C210.772 429.62 206.226 428.903 201.717 428.034C199.161 427.541 196.301 427.255 193.879 426.229ZM317.009 483C320.102 483.146 320.11 487.962 317.009 487.804C313.931 487.647 313.916 482.853 317.009 483ZM317.243 483.011C319.787 483.272 320.172 486.955 317.709 487.701C316.915 487.942 315.926 487.71 315.172 487.633C312.65 487.374 310.134 487.088 307.62 486.765C301.203 485.94 294.839 484.636 288.808 482.26C286.437 481.325 283.793 479.948 281.99 478.09C280.707 476.767 279.579 475.436 278.905 473.689C277.376 469.73 278.544 461.962 278.827 457.701C279.561 446.67 280.424 435.647 281.041 424.609C281.423 417.79 282.806 410.4 278.883 404.385C277.654 402.501 279.558 400.013 281.701 400.874C282.905 401.357 283.637 403.01 284.175 404.117C286.169 408.217 286.257 412.391 286.095 416.901C285.528 432.731 283.985 448.509 283.13 464.322C283.004 466.661 282.426 469.747 283.3 471.988C284.679 475.525 289.017 477.356 292.303 478.544C300.275 481.426 308.873 482.153 317.243 483.011ZM282.39 404.811C280.411 406.52 277.436 404.098 278.814 401.833C279.699 400.38 281.954 398.824 283.205 397.56C285.805 394.934 288.15 392.121 290.419 389.21C292.035 387.136 295.444 388.946 294.524 391.448C293.989 392.9 292.436 394.339 291.446 395.514C288.664 398.815 285.66 401.987 282.39 404.811ZM290.533 392.194C288.813 390.201 291.288 387.227 293.547 388.621C295.403 389.766 297.301 393.393 298.251 395.325C301.408 401.746 303.927 408.962 303.819 416.179C303.664 426.626 301.552 437.037 300.736 447.432C300.465 450.882 299.61 458.419 301.626 461.446C304.715 466.084 311.425 468.28 316.492 469.684C320.285 470.735 324.187 471.41 328.11 471.721C330.501 471.911 332.905 471.966 335.302 471.855C338.039 471.729 340.764 471.327 343.487 471.025C348.859 470.431 354.163 469.929 359.339 468.257C363.448 466.93 367.124 465.492 369.877 462.013C374.894 455.674 376.582 447.74 374.594 439.954C374.028 437.738 373.396 435.39 372.023 433.519C370.448 431.373 368.081 429.921 365.809 428.62C364.468 427.851 363.018 426.835 361.511 426.44C359.307 425.863 356.892 425.971 354.642 426.096C345.583 426.599 336.615 428.692 327.846 430.907C324.828 431.669 323.024 427.456 325.702 425.833C327.263 424.887 329.69 424.709 331.446 424.297C334.843 423.501 338.275 422.792 341.716 422.217C347.789 421.202 355.436 419.675 361.549 420.934C363.77 421.391 365.601 422.321 367.565 423.438C370.309 424.997 373.177 426.669 375.274 429.079C378.477 432.759 379.955 437.95 380.514 442.727C380.877 445.824 380.919 449.01 380.216 452.068C378.724 458.566 375.23 465.17 369.801 469.205C366.922 471.344 363.364 472.373 359.988 473.424C355.106 474.946 350.097 475.425 345.035 475.952C340.13 476.463 335.317 476.991 330.363 476.875C326.904 476.793 323.47 476.248 320.073 475.635C312.516 474.27 300.316 470.411 296.767 462.755C295.614 460.268 295.59 457.318 295.547 454.633C295.4 445.261 297.147 435.81 298.188 426.526C298.693 422.02 299.361 417.337 298.985 412.796C298.665 408.94 297.145 404.903 295.74 401.328C294.445 398.031 292.857 394.885 290.533 392.194ZM329.898 428.62C329.377 431.823 324.543 431.637 324.365 428.365C324.245 426.159 324.951 423.678 325.206 421.486C325.717 417.083 326.157 412.661 326.338 408.23C326.709 399.144 322.594 391.215 317.035 384.22C313.024 379.173 308.463 374.791 302.387 372.565C299.729 371.591 299.778 367.645 302.59 366.907C304.629 366.372 308.576 368.762 310.306 369.845C318.395 374.907 324.56 383.534 328.636 391.989C330.316 395.473 331.472 399.217 331.961 403.053C332.361 406.187 331.988 409.53 331.731 412.664C331.295 417.989 330.757 423.344 329.898 428.62ZM306.141 370.712C305.1 373.466 300.944 373.288 300.427 370.266C300.24 369.176 302.004 363.571 302.115 363.007C303.021 358.393 303.171 353.652 302.953 348.965C302.198 332.765 297.535 316.868 293.405 301.282C289.411 286.209 285.06 270.882 284.24 255.229C284.041 251.424 289.672 250.517 290.627 254.225C290.953 255.492 290.835 256.93 290.943 258.226C291.188 261.16 291.567 264.081 292.029 266.988C293.249 274.663 295.033 282.24 296.923 289.773C301.118 306.489 306.418 323.269 308.286 340.465C309.371 350.455 309.76 361.141 306.141 370.712ZM287.461 258.282C284.509 258.211 283.092 254.425 285.429 252.519C286.996 251.24 290.44 251.777 292.384 251.69C302.031 251.258 311.643 249.339 320.151 244.563C329.843 239.123 338.057 230.212 341.552 219.555C342.735 215.947 348.254 216.794 348.199 220.627C348.17 222.622 346.888 224.855 346.079 226.625C343.772 231.676 340.318 236.49 336.394 240.405C323.091 253.678 305.731 258.724 287.461 258.282ZM346.081 217.428C349.673 219.045 348.137 224.672 344.165 223.922C342.287 223.567 340.375 222.465 338.622 221.759C334.693 220.175 330.764 218.592 326.836 217.008C319.538 214.065 312.24 211.122 304.943 208.178C301.261 206.692 297.497 205.328 293.87 203.709C290.167 202.056 291.75 196.259 295.835 197.044C297.708 197.404 299.635 198.517 301.387 199.23C305.311 200.826 309.235 202.423 313.159 204.02C320.447 206.987 327.734 209.954 335.021 212.922C338.698 214.42 342.46 215.797 346.081 217.428ZM298.606 201.122C297.857 204.941 292.134 204.742 291.706 200.853C291.486 198.853 292.607 195.188 292.971 193.087C293.715 188.782 294.383 184.462 294.868 180.119C295.874 171.124 296.366 161.543 293.633 152.786C292.082 147.821 289.205 143.443 286.443 139.089C284.64 136.246 288.388 131.617 288.388 131.617C288.388 131.617 294.335 139.212 295.422 141.099C301.269 151.243 302.986 160.635 302.561 172.277C302.207 181.955 300.466 191.638 298.606 201.122Z" fill="#1A1A1A"/>
<path fill-rule="evenodd" clip-rule="evenodd" d="M177.529 285.734C178.732 285.826 179.633 286.875 179.541 288.078C178.179 305.908 176.121 335.397 179.512 354.157C182.85 372.622 195.376 381.499 202.048 386.227C202.902 386.833 203.661 387.37 204.292 387.851C205.251 388.582 205.436 389.953 204.705 390.913C203.973 391.872 202.602 392.057 201.643 391.326C201.086 390.901 200.385 390.408 199.573 389.837C192.941 385.169 178.891 375.281 175.212 354.934C171.7 335.506 173.836 305.396 175.184 287.746C175.276 286.543 176.326 285.642 177.529 285.734Z" fill="#1A1A1A"/>
<path opacity="0.45" d="M262.951 203.931C262.815 203.973 263.446 203.473 263.514 203.427C263.928 203.147 264.351 202.889 264.778 202.637C266.073 201.872 267.428 201.226 268.822 200.744C272.929 199.321 277.453 199.638 281.597 200.636C285.051 201.468 288.476 202.474 291.924 203.34C294.727 204.045 297.536 204.754 300.305 205.624C302.505 206.315 304.683 207.103 306.841 207.953C314.377 210.92 318.617 212.935 324.092 219.375C325.58 221.125 327.686 223.393 327.941 225.971C328.254 229.148 326.252 232.609 324.795 235.109C321.119 241.417 317.657 243.302 311.801 246.086C307.915 247.934 303.946 249.487 299.879 250.712C297.006 251.577 294.093 252.285 291.153 252.76C287.663 253.325 284.129 253.337 280.614 253.515C276.112 253.743 271.603 254.17 267.094 254.016C261.643 253.829 256.267 252.333 251.878 248.425C251.714 248.279 252.65 248.603 252.669 248.609C253.197 248.776 253.735 248.898 254.276 248.995C256.028 249.308 257.812 249.339 259.582 249.339C265.019 249.339 270.443 249.981 275.886 249.925C286.938 249.811 296.931 247.541 307.087 242.369C314.078 238.809 318.477 236.707 321.709 228.199C321.914 227.658 322.104 227.106 322.204 226.525C322.253 226.242 322.484 227.623 322.366 227.369C321.201 224.871 316.731 220.381 314.65 218.941C312.823 217.678 310.787 216.762 308.831 215.811C305.163 214.028 301.446 212.381 297.781 210.59C291.774 207.655 285.753 204.529 279.253 203.389C276.158 202.846 273.039 202.932 269.923 203.111C267.595 203.245 265.219 203.234 262.951 203.931Z" fill="url(#paint3_linear)"/>
<path d="M206.365 278.159C206.598 275.726 210.168 275.385 210.684 277.846C210.951 279.121 210.514 280.78 210.397 282.064C210.133 284.985 209.878 287.907 209.646 290.831C208.94 299.748 208.509 308.672 208.617 317.619C208.797 332.507 209.338 348.726 218.122 361.382C221.619 366.42 226.197 370.763 230.874 374.701C232.643 376.19 234.579 377.525 236.291 379.08C237.989 380.622 236.505 383.569 234.224 382.838C233.131 382.487 232.06 381.503 231.085 380.881C228.594 379.293 226.136 377.645 223.832 375.792C214.932 368.636 208.661 358.169 206.446 346.985C204.046 334.863 204.506 322.088 204.906 309.806C205.249 299.291 205.364 288.638 206.365 278.159Z" fill="#1A1A1A"/>
<path d="M276.809 257.414C270.482 258.498 247.169 249.418 236.304 244.743C234.949 247.146 229.138 251.472 226.342 254.443C223.545 257.414 251.99 263.4 263.089 263.793C274.187 264.187 284.717 256.059 276.809 257.414Z" fill="#373737"/>
<path d="M234.864 218.491C234.798 215.407 238.684 213.668 240.718 216.208C241.586 217.292 241.526 218.991 241.581 220.342C241.721 223.81 241.601 227.301 241.165 230.745C240.73 234.186 239.976 237.619 238.624 240.821C235.227 248.867 227.264 258.032 218.616 260.602C216.896 261.113 215.27 259.301 216.23 257.674C216.733 256.822 219.16 254.797 219.983 253.855C223.196 250.18 226.475 246.52 229.142 242.417C233.804 235.244 235.045 226.906 234.864 218.491Z" fill="#1A1A1A"/>
<path d="M230.012 207.077C230.012 218.685 220.603 228.094 208.995 228.094C197.388 228.094 187.979 218.685 187.979 207.077C187.979 195.47 197.388 186.06 208.995 186.06C220.603 186.06 230.012 195.47 230.012 207.077Z" fill="#525252"/>
<path d="M231.841 242.723C229.453 241.306 230.563 237.458 233.423 237.819C234.801 237.993 236.357 239.304 237.525 240.042C240.248 241.762 242.931 243.537 245.85 244.919C252.856 248.237 260.633 249.554 268.255 250.578C279.033 252.026 287.929 251.966 298.582 249.771C301.01 249.271 303.477 248.828 305.848 248.094C313.87 245.612 321.214 241.586 328.848 238.192C331.231 237.133 333.73 239.836 332.147 242.062C331.527 242.932 330.194 243.523 329.293 244.09C327.253 245.372 325.213 246.652 323.151 247.898C318.449 250.741 313.622 253.58 308.46 255.509C303.589 257.33 298.221 258.339 293.087 259.087C278.4 261.225 261.4 257.794 247.999 251.758C242.388 249.231 237.123 245.857 231.841 242.723Z" fill="#1A1A1A"/>
<path d="M193.131 397.601C191.03 398.71 188.775 396.092 190.409 394.255C191.536 392.987 196.525 390.146 198.246 389.59C205.005 387.404 211.223 383.647 218.389 382.249C236.198 378.774 254.177 379.308 269.586 388.986C274.718 392.208 280.58 396.53 282.946 402.315C283.697 404.151 281.827 406.112 279.971 405.171C279.024 404.691 278.436 403.228 277.766 402.39C276.514 400.823 274.989 399.482 273.375 398.298C267.013 393.632 259.366 390.56 251.913 388.218C245.083 386.072 237.766 384.646 230.58 384.886C220.997 385.208 211.172 388.476 202.584 392.583C199.356 394.126 196.289 395.933 193.131 397.601Z" fill="#1A1A1A"/>
<path d="M303.078 360.032C303.8 357.974 306.884 358.006 307.314 360.255C307.587 361.677 307.008 363.625 306.754 365.034C305.926 369.624 304.252 373.995 302.25 378.194C298.088 386.921 290.541 398.872 282.065 403.915C280.127 405.068 277.76 402.878 279.037 400.899C279.726 399.832 282.414 398.082 283.495 396.992C286.146 394.317 288.392 391.249 290.36 388.045C295.61 379.499 299.748 369.519 303.078 360.032Z" fill="#1A1A1A"/>
<path d="M250.526 178.51C252.432 190.824 244.938 202.205 233.787 203.931C222.636 205.657 212.051 197.074 210.145 184.76C208.239 172.446 215.734 161.065 226.885 159.339C238.036 157.613 248.62 166.196 250.526 178.51Z" fill="white"/>
<path d="M250.052 178.569C249.748 176.339 252.54 174.891 254.095 176.627C255.241 177.905 254.987 180.953 254.944 182.591C254.757 189.776 251.848 196.928 246.48 201.798C244.552 203.546 242.359 204.972 239.965 205.995C225.927 211.993 211.645 202.257 207.4 188.66C206.168 184.715 205.768 180.473 206.298 176.371C206.751 172.865 207.848 169.431 209.619 166.365C211.122 163.763 213.081 161.451 215.419 159.56C217.357 157.992 219.567 156.734 221.912 155.884C237.203 150.343 252.808 162.406 254.666 177.84C254.943 180.147 251.958 181.511 250.5 179.604C249.764 178.641 249.245 174.987 248.671 173.528C247.076 169.475 244.36 165.854 240.803 163.322C239.041 162.068 237.08 161.089 235.005 160.472C223.341 157.005 212.903 165.711 210.668 176.937C208.899 185.822 212.255 195.518 219.775 200.773C231.241 208.787 245.622 202.515 249.443 189.552C250.51 185.931 250.557 182.282 250.052 178.569Z" fill="#1A1A1A"/>
<path d="M242.82 180.028C244.004 187.678 239.348 194.749 232.42 195.822C225.492 196.894 218.916 191.561 217.732 183.911C216.548 176.261 221.204 169.19 228.132 168.117C235.06 167.045 241.636 172.377 242.82 180.028Z" fill="#1A1A1A"/>
<path d="M234.384 193.404C234.384 195.817 232.428 197.773 230.015 197.773C227.602 197.773 225.646 195.817 225.646 193.404C225.646 190.991 227.602 189.035 230.015 189.035C232.428 189.035 234.384 190.991 234.384 193.404Z" fill="white"/>
<path d="M309.453 172.047C311.302 183.992 304.032 195.033 293.215 196.707C282.398 198.382 272.13 190.055 270.281 178.11C268.432 166.165 275.703 155.124 286.52 153.45C297.337 151.776 307.604 160.102 309.453 172.047Z" fill="white"/>
<path d="M308.63 172.571C308.338 170.427 311.02 169.035 312.515 170.704C313.616 171.933 313.372 174.863 313.331 176.438C313.151 183.346 310.356 190.221 305.197 194.903C303.345 196.583 301.238 197.954 298.938 198.938C285.449 204.704 271.725 195.345 267.645 182.273C266.462 178.479 266.078 174.401 266.587 170.457C267.022 167.087 268.076 163.786 269.778 160.839C271.223 158.337 273.104 156.114 275.351 154.296C277.214 152.788 279.337 151.579 281.59 150.762C296.284 145.435 311.405 157.372 313.19 172.21C313.456 174.428 308.994 175.638 308.727 173.346C308.61 172.341 307.855 169.127 307.303 167.724C305.771 163.828 303.161 160.347 299.743 157.913C298.049 156.707 296.165 155.766 294.172 155.173C282.963 151.84 272.934 160.21 270.786 171.002C269.086 179.544 272.311 188.866 279.537 193.918C290.555 201.622 304.373 195.592 308.045 183.129C309.07 179.649 309.115 176.14 308.63 172.571Z" fill="#1A1A1A"/>
<path d="M303.721 173.027C304.94 180.902 300.147 188.182 293.015 189.285C285.883 190.389 279.114 184.9 277.895 177.024C276.676 169.149 281.469 161.869 288.601 160.765C295.733 159.661 302.502 165.151 303.721 173.027Z" fill="#1A1A1A"/>
<path d="M290.835 186.935C290.835 189.348 288.878 191.304 286.465 191.304C284.052 191.304 282.096 189.348 282.096 186.935C282.096 184.522 284.052 182.565 286.465 182.565C288.878 182.565 290.835 184.522 290.835 186.935Z" fill="white"/>
<path d="M137.425 350.263C137.425 326.45 141.314 284.285 141.314 234.692C141.925 209.655 155.47 165.593 155.47 165.961C155.47 165.961 162.462 218.438 164.777 242.382C167.093 266.327 160.102 296.956 157.786 320.77C155.47 344.583 160.152 369.428 160.495 375.431C160.845 381.548 164.471 390.724 169.715 405.536L173.079 414.013C160.495 413.008 153.448 407.808 146.819 392.428C140.19 377.048 137.425 374.077 137.425 350.263Z" fill="white"/>
<path d="M294.184 133.253C294.269 132.495 294.195 133.484 294.192 133.6C294.185 133.831 294.155 134.062 294.103 134.287C293.947 134.965 293.585 135.589 293.075 136.062C291.663 137.374 289.38 137.269 288.094 135.833C286.982 134.592 286.913 132.678 287.934 131.36C288.289 130.902 288.757 130.536 289.287 130.302C289.499 130.209 289.719 130.137 289.945 130.087C290.058 130.062 290.398 129.995 290.287 130.029C288.985 130.431 289.729 130 288.464 130.811C288.325 130.901 287.995 131.277 288.106 131.155C289.35 129.792 291.108 128.045 292.539 126.56C293.043 126.036 293.546 125.511 294.045 124.983C294.258 124.757 294.773 124.203 294.664 124.324C294.653 124.336 294.685 124.3 294.696 124.288C294.905 124.058 295.152 123.862 295.425 123.712C295.634 123.597 295.874 123.491 296.11 123.445C298.189 123.046 300.113 124.915 299.428 127.023C298.956 128.475 294.645 134.06 293.486 135.606C293.387 135.739 293.695 135.344 293.757 135.191C293.892 134.856 294.05 134.526 294.128 134.173C294.194 133.873 293.959 135.268 294.184 133.253ZM299.008 127.833C297.407 129.8 294.06 128.907 293.979 126.245C293.932 124.73 295.663 123.213 296.316 121.841C297.764 118.795 297.864 115.254 296.413 112.188C294.402 107.942 291.254 103.239 287.173 100.717C285.308 99.5657 283.157 99.1469 281.016 98.8285C274.498 97.8591 269.754 98.8599 264.319 102.642C260.371 105.389 260.185 108.023 257.489 111.143C255.525 113.417 251.611 112.53 251.263 109.371C251.083 107.739 252.613 105.654 253.332 104.183C256.338 98.0432 261.307 93.7582 267.874 91.651C274.628 89.4833 285.198 91.2287 290.84 95.5697C294.433 98.3345 296.989 102.289 299.174 106.198C300.263 108.147 301.367 110.132 301.973 112.293C303.392 117.356 302.391 123.675 299.008 127.833Z" fill="#1A1A1A"/>
<path d="M137.818 234.74C137.816 230.798 143.56 229.893 144.671 233.718C145.184 235.486 144.76 237.82 144.723 239.652C144.64 243.823 144.518 247.994 144.377 252.164C143.908 266.04 143.15 279.905 142.359 293.766C141.882 302.122 141.386 310.477 141.011 318.838C140.716 325.414 140.547 331.996 140.496 338.579C140.412 349.564 140.142 361.226 142.922 371.957C144.472 377.941 147.374 383.447 149.875 389.067C153.169 396.467 156.72 404.84 164.528 408.457C167.373 409.775 170.391 410.297 173.467 410.751C176.445 411.191 177.448 415.195 174.791 416.817C173.107 417.845 168.794 417 166.824 416.618C156.79 414.67 149.963 407.799 145.322 398.992C143.772 396.049 142.531 392.956 141.217 389.904C138.771 384.219 136.351 378.518 135.256 372.392C133.854 364.558 134.021 356.471 134.308 348.55C134.723 337.129 135.695 325.734 136.285 314.322C137.658 287.787 137.836 261.301 137.818 234.74ZM175.725 412.066C177.384 414.814 174.813 418.546 171.616 416.954C170.57 416.434 170.056 415.51 169.819 414.411C169.784 414.25 169.954 415.03 169.994 415.141C170.024 415.22 169.937 414.98 169.908 414.9C169.854 414.747 169.799 414.593 169.745 414.439C169.576 413.966 169.408 413.492 169.24 413.018C168.738 411.601 168.235 410.184 167.732 408.767C167.395 407.819 166.843 406.698 166.787 405.885C166.595 403.146 169.955 401.403 171.903 403.56C173.12 404.907 173.908 407.743 174.719 409.583C175.028 410.286 175.339 410.99 175.648 411.694C175.739 411.901 175.83 412.108 175.921 412.315C175.968 412.421 176.108 412.74 176.061 412.634C176.048 412.606 176.11 412.746 176.098 412.718C176 412.488 175.661 411.96 175.725 412.066ZM172.457 404.451C173.635 407.638 169.214 410.05 167.275 407.192C166.241 405.669 165.529 402.068 164.918 400.149C163.319 395.128 161.648 390.121 160.236 385.043C158.34 378.229 157.996 371.223 157.215 364.213C155.717 350.763 154.809 337.191 155.777 323.667C157.472 299.978 163.345 276.726 163.202 252.872C163.141 242.665 161.561 232.478 160.284 222.37C157.935 203.794 154.94 184.835 152.688 166.458C152.294 163.242 156.834 161.772 158.094 164.908C158.537 166.012 158.538 167.766 158.702 169.1C159.036 171.838 159.365 174.577 159.693 177.315C160.76 186.209 161.806 195.104 162.828 204.003C163.868 213.066 164.882 222.132 165.819 231.206C166.488 237.686 167.239 244.178 167.28 250.699C167.374 265.582 165.157 280.384 162.986 295.071C161.401 305.792 159.579 316.562 159.075 327.403C158.489 339.999 159.563 352.609 161.238 365.087C161.848 369.635 162.125 374.467 163.158 378.946C165.193 387.774 169.328 395.992 172.457 404.451ZM155.179 163.15C157.863 163.004 159.46 166.38 157.242 168.164C157.025 168.339 156.781 168.482 156.522 168.586C156.436 168.62 156.179 168.725 156.258 168.677C157.239 168.071 157.637 168.166 158.109 166.967C158.179 166.789 157.994 167.331 157.938 167.513C157.806 167.946 157.678 168.38 157.551 168.814C157.167 170.129 156.793 171.446 156.427 172.765C155.322 176.738 154.272 180.727 153.271 184.727C149.171 201.106 145.447 217.844 144.808 234.765C144.668 238.488 139.367 239.465 138.04 235.917C137.567 234.653 137.878 233.072 137.959 231.753C138.146 228.704 138.501 225.665 138.909 222.639C140.86 208.19 144.439 193.936 148.345 179.907C149.558 175.55 150.821 171.205 152.184 166.893C152.676 165.333 153.146 163.261 155.179 163.15Z" fill="#1A1A1A"/>
<path d="M265.276 203.25C262.577 204.457 259.446 202.091 260.359 199.106C260.955 197.159 263.347 196.344 265.115 195.705C272.692 192.968 281.128 193.255 288.963 194.651C299.767 196.577 312.658 202.903 322.081 208.218C325.392 210.085 323.785 215.376 319.917 214.768C318.458 214.539 316.945 213.512 315.605 212.891C312.827 211.604 310.03 210.359 307.213 209.16C295.513 204.18 278.07 197.529 265.276 203.25Z" fill="#1A1A1A"/>
<path d="M178.997 141.101C177.424 142.639 169.107 153.539 165.146 158.797C163.573 156.802 160.27 151.666 159.64 147.087C158.854 141.363 159.99 137.955 163.573 133.367C167.156 128.779 171.996 129.776 175.851 130.92C178.647 131.75 181.997 135.639 183.06 137.955C182.361 138.363 180.57 139.563 178.997 141.101Z" fill="#1A1A1A"/>
<path d="M250.807 111.988C247.474 110.866 247.532 105.879 251.145 105.199C252.621 104.921 254.468 105.821 255.866 106.331C259.639 107.708 263.306 109.375 266.811 111.336C276.233 116.611 283.742 123.77 289.645 132.759C291.098 134.973 294.129 139.176 294.624 141.802C295.146 144.567 291.75 146.597 289.73 144.416C289.017 143.645 287.123 139.737 286.277 138.43C283.364 133.932 280.168 129.581 276.204 125.948C268.868 119.227 260.14 115.13 250.807 111.988Z" fill="#1A1A1A"/>
<path d="M281.896 272.669C281.9 272.586 282.072 273.389 282.092 273.541C282.177 274.187 282.264 274.833 282.357 275.478C282.635 277.402 282.936 279.323 283.247 281.243C284.2 287.127 285.288 292.701 287.225 298.372C289.172 304.076 291.213 309.834 292.679 315.685C293.497 318.951 289.461 321.489 287.029 318.95C286.192 318.075 286.093 316.898 285.896 315.768C285.518 313.592 285.161 311.413 284.819 309.232C284.072 304.467 283.613 299.67 282.947 294.895C282.57 292.189 281.844 289.532 281.665 286.799C281.359 282.109 281.673 277.357 281.896 272.669ZM286.335 315.383C286.658 314.675 287.12 314.086 287.808 313.699C288.57 313.271 289.487 313.156 290.331 313.384C292.666 314.015 292.996 316.8 293.591 318.946C295.091 324.359 296.559 329.792 297.858 335.257C297.918 335.513 297.477 334.189 297.595 334.513C299.129 338.711 294.352 342.442 291.006 339.196C290.173 338.388 289.862 337.398 289.758 336.276C289.733 336.014 289.894 337.318 289.839 337.06C288.758 331.968 287.836 326.838 286.925 321.713C286.616 319.977 285.72 316.733 286.335 315.383ZM289.783 336.705C289.479 332.517 295.06 330.355 297.365 334.085C298.186 335.414 298.213 337.469 298.432 339.009C298.932 342.538 299.37 346.077 299.713 349.626C300 352.594 300.45 355.761 300.097 358.743C298.637 371.083 289.295 385.358 279.563 392.82C279.543 392.835 280.063 391.834 280.176 391.629C280.605 390.852 281.009 390.061 281.404 389.267C282.622 386.818 283.88 384.406 285.21 382.016C286.4 379.879 287.788 377.707 288.62 375.395C289.379 373.286 289.623 371.03 290.063 368.842C290.711 365.62 291.484 362.409 291.932 359.152C292.284 356.597 291.735 353.912 291.451 351.375C290.904 346.499 290.138 341.599 289.783 336.705Z" fill="#373737"/>
<path d="M152.137 193.762C152.173 193.629 152.129 194.645 152.116 194.771C152.039 195.49 151.971 196.21 151.902 196.929C151.698 199.041 151.52 201.156 151.31 203.267C150.674 209.684 149.824 216.079 149.118 222.488C148.696 226.322 148.236 230.177 148.114 234.035C147.938 239.645 148.245 245.304 148.27 250.916C148.312 260.56 148.27 270.204 148.173 279.847C148.047 292.438 147.806 305.027 147.54 317.615C147.407 323.964 147.494 330.364 147.114 336.705C146.886 340.506 141.335 341.191 140.416 337.399C140.081 336.016 140.449 334.303 140.529 332.888C140.7 329.842 140.859 326.795 141.006 323.748C141.465 314.162 141.731 304.567 142.005 294.974C142.395 281.33 142.754 267.684 143.171 254.04C143.388 246.944 143.208 239.692 143.973 232.624C145.398 219.471 148.677 206.5 152.137 193.762ZM140.338 336.259C140.817 332.773 145.806 332.065 146.946 335.54C147.454 337.088 146.929 339.276 146.827 340.868C146.594 344.489 146.432 348.115 146.383 351.743C146.27 360.271 146.552 369.152 149.041 377.372C149.997 380.527 151.507 383.479 152.733 386.534C154.124 390.001 155.254 393.576 156.339 397.149C156.821 398.733 157.456 400.372 157.727 402.013C157.753 402.167 157.579 401.912 157.571 401.898C157.349 401.486 157.099 401.09 156.847 400.696C156.268 399.79 155.659 398.903 155.047 398.019C153.199 395.35 151.262 392.743 149.432 390.061C143.067 380.733 140.573 373.934 139.622 362.603C138.896 353.941 139.152 344.881 140.338 336.259Z" fill="#E6E6E6"/>
<path d="M308.022 231.014C305.434 226.06 303.487 220.896 306.113 215.299C308.335 210.563 312.289 208.746 316.644 207.02C322.086 204.862 345.341 206.425 348.215 207.837C353.507 210.437 353.394 215.902 353.073 218.202C353.004 223.248 350.018 232.802 345.727 239.68C341.288 246.795 336.248 247.795 333.676 248.188C331.727 248.485 327.075 248.639 324.21 247.344C316.028 243.645 310.61 235.969 308.022 231.014Z" fill="#1A1A1A"/>
<path d="M206.418 140.139C200.071 136.783 192.786 129.812 190.164 126.244C192.727 124.161 199.191 119.297 204.539 116.5C211.225 113.005 223.182 108.926 236.698 107.98C249.807 107.062 258.167 110.922 262.434 112.699C264.065 119.369 265.152 132.44 264.138 137.299C262.871 143.372 254.875 146.562 248.452 147.698C242.451 148.759 238.315 148.834 228.003 147.698C217.691 146.562 216.337 145.382 206.418 140.139Z" fill="white"/>
<path d="M193.386 124.341C193.428 124.437 192.786 124.162 193.227 123.989C194.075 123.657 195.974 124.356 196.847 124.502C199.215 124.9 201.43 125.721 203.631 126.665C215.083 131.581 225.689 139.677 238.666 139.264C243.385 139.114 248.218 138.429 252.885 139.503C254.793 139.942 257.224 140.819 257.606 142.433C258.121 144.607 255.931 145.937 253.969 146.722C249.759 148.406 244.916 147.915 240.533 147.355C236.183 146.799 231.729 146.954 227.42 146.129C220.065 144.722 213.011 141.343 206.752 137.29C203.26 135.03 199.767 132.474 196.99 129.345C196.05 128.287 195.303 127.089 194.487 125.937C194.141 125.449 193.249 124.019 193.386 124.341ZM257.649 143.365C257.11 145.613 253.708 145.376 253.717 142.983C253.725 140.669 257.216 140.326 257.642 142.565C257.692 142.826 257.712 143.103 257.649 143.365ZM257.651 142.718C257.814 144.627 254.985 145.111 254.639 143.193C254.297 141.292 257.284 140.684 257.628 142.587C257.636 142.63 257.647 142.667 257.651 142.718ZM257.589 142.683C257.657 143.711 256.141 143.972 255.948 142.935C255.757 141.91 257.217 141.646 257.531 142.46C257.554 142.522 257.588 142.671 257.589 142.683ZM257.564 142.686C257.556 143.329 256.634 143.507 256.446 142.866C256.266 142.251 257.137 141.851 257.473 142.391C257.528 142.479 257.566 142.581 257.564 142.686ZM257.536 142.596C257.586 144.296 256.216 141.216 257.418 142.343C257.488 142.409 257.533 142.498 257.536 142.596ZM257.479 142.431C257.888 143.379 256.322 142.079 257.314 142.296C257.386 142.312 257.449 142.362 257.479 142.431ZM257.25 142.299C257.576 142.249 257.081 142.773 257.175 142.353C257.186 142.307 257.242 142.3 257.25 142.299Z" fill="#E5E5E5"/>
<path d="M187.417 127.609C185.192 124.545 188.777 120.373 192.071 122.517C193.002 123.123 193.641 124.31 194.349 125.165C195.365 126.393 196.449 127.564 197.568 128.698C201.268 132.448 205.303 135.527 209.861 138.148C212.807 139.843 215.753 141.675 218.974 142.809C222.46 144.038 226.203 144.436 229.855 144.846C235.803 145.515 241.671 145.852 247.595 144.836C252.317 144.027 258.825 142.304 261.309 137.723C262.553 135.429 262.276 132.315 262.203 129.807C262.035 123.981 261.274 118.203 260.02 112.517C259.478 110.06 262.585 108.298 264.306 110.257C265.461 111.572 265.745 116.065 265.974 117.858C266.562 122.449 266.903 127.104 266.825 131.733C266.776 134.676 266.587 137.682 265.028 140.261C260.799 147.256 249.903 149.427 242.33 149.838C238.509 150.045 234.678 149.784 230.872 149.44C226.817 149.074 222.682 148.755 218.733 147.701C215.318 146.79 212.149 145.226 208.992 143.669C205.003 141.702 201.187 139.731 197.615 137.063C194.008 134.369 190.088 131.285 187.417 127.609ZM263.42 109.613C265.762 110.717 265.133 114.376 262.45 114.393C261.237 114.401 259.788 113.507 258.683 113.083C256.458 112.229 254.185 111.507 251.86 110.975C245.31 109.478 238.626 109.61 232.006 110.558C223.098 111.834 213.971 114.323 206.024 118.636C201.124 121.295 196.807 124.772 192.395 128.138C189.602 130.268 185.502 127.445 186.952 124.068C187.672 122.391 191.05 120.37 192.567 119.293C198.132 115.342 203.922 111.997 210.359 109.668C227.385 103.507 246.693 101.732 263.42 109.613Z" fill="#1A1A1A"/>
<path d="M109.543 406.273C111.915 406.99 112.228 410.412 109.77 411.284C108.829 411.618 107.647 411.278 106.689 411.062C104.254 410.515 101.883 409.673 99.6114 408.645C90.1549 404.366 82.4426 396.561 79.9239 386.301C77.7276 377.354 77.5187 367.851 77.4636 358.686C77.3823 345.186 78.0794 331.638 78.5261 318.15C78.6206 315.295 82.7063 314.523 83.6357 317.322C84.2654 319.217 83.8764 325.096 83.8804 327.354C83.8939 334.889 83.8259 342.424 83.9045 349.96C84.0186 360.91 83.7522 376.009 87.5376 386.321C90.8456 395.333 100.435 403.522 109.543 406.273Z" fill="#1A1A1A"/>
</g>
<mask id="path-60-outside-1" maskUnits="userSpaceOnUse" x="420" y="125" width="923" height="144" fill="black">
<rect fill="white" x="420" y="125" width="923" height="144"/>
<path d="M431.077 129.733L516.565 128.471C520.646 129.733 522.687 131.765 522.687 134.568C522.687 141.575 519.802 145.078 514.032 145.078C503.478 145.078 492.291 145.358 480.47 145.919C479.766 157.971 479.415 167.08 479.415 173.246C479.415 179.272 479.415 183.126 479.415 184.808L480.259 258.592C480.259 262.936 479.133 265.458 476.882 266.159C475.193 266.72 473.082 267 470.549 267C466.468 267 464.217 264.688 463.794 260.063C462.95 249.272 462.528 229.162 462.528 199.733C462.528 170.163 462.95 152.365 463.794 146.339C460.839 146.479 456.477 146.55 450.707 146.55C444.938 146.55 437.761 146.479 429.177 146.339C426.925 146.339 425.166 145.639 423.9 144.237C422.633 142.836 422 141.154 422 139.192C422 137.09 422.844 135.058 424.533 133.096C426.362 131.134 428.544 130.013 431.077 129.733Z"/>
<path d="M548.391 185.649C559.367 187.47 569.429 188.381 578.576 188.381C587.723 188.381 593.563 188.311 596.096 188.171C595.814 177.521 595.674 167.29 595.674 157.48C595.674 147.671 595.674 141.014 595.674 137.511C595.674 134.007 595.814 131.835 596.096 130.994C596.377 130.013 597.292 129.102 598.84 128.261C600.388 127.42 602.639 127 605.595 127C609.816 127 611.927 129.523 611.927 134.568V208.982C611.927 224.397 611.575 241.354 610.872 259.853C610.731 263.917 607.283 265.949 600.529 265.949C597.151 265.949 595.463 263.917 595.463 259.853L596.307 204.147C591.804 204.427 585.612 204.568 577.732 204.568C569.992 204.568 560.212 203.727 548.391 202.045C548.391 220.544 549.235 239.883 550.924 260.063C551.065 262.305 550.08 264.057 547.969 265.318C545.858 266.439 543.184 267 539.948 267C536.852 267 535.163 265.388 534.882 262.165C533.052 242.265 532.138 222.646 532.138 203.306L533.404 137.721C533.404 134.918 534.46 132.886 536.57 131.625C538.681 130.223 540.933 129.523 543.325 129.523C547.265 129.523 549.235 131.414 549.235 135.198L548.391 185.649Z"/>
<path d="M640.164 132.465C642.416 131.064 644.949 130.363 647.763 130.363C650.578 130.363 652.337 131.975 653.04 135.198C653.181 151.454 653.463 175.769 653.885 208.141C653.885 227.901 653.322 244.648 652.196 258.381C651.915 260.483 650.578 262.375 648.185 264.057C645.934 265.599 643.612 266.369 641.22 266.369C637.28 266.369 635.309 264.337 635.309 260.273C636.717 246.259 637.42 228.882 637.42 208.141L636.154 137.511C636.717 135.549 638.054 133.867 640.164 132.465Z"/>
<path d="M725.094 127C734.241 127 741.981 128.542 748.313 131.625C754.786 134.708 758.023 138.632 758.023 143.396C758.023 145.499 757.46 147.32 756.334 148.862C755.349 150.403 753.801 151.174 751.69 151.174C749.72 151.174 745.358 149.633 738.603 146.55C731.849 143.326 725.657 141.715 720.028 141.715C714.54 141.715 708.841 143.466 702.93 146.97C697.02 150.473 694.065 154.748 694.065 159.793C694.065 166.66 697.653 171.705 704.83 174.928C710.177 177.31 717.847 179.482 727.838 181.444C737.829 183.266 745.991 187.12 752.324 193.006C758.656 198.752 761.822 207.511 761.822 219.282C761.822 237.22 756.405 250.463 745.569 259.012C739.518 263.777 730.934 266.159 719.817 266.159C708.841 266.159 697.864 263.146 686.888 257.12C679.711 253.336 676.123 249.553 676.123 245.769C676.123 244.367 676.686 242.826 677.811 241.144C679.078 239.462 680.767 238.061 682.877 236.94C684.988 235.819 686.888 235.679 688.577 236.52C690.406 237.22 693.291 238.552 697.231 240.514C701.171 242.475 704.056 243.807 705.885 244.508C711.796 246.75 717.354 247.871 722.561 247.871C727.768 247.871 732.763 245.348 737.548 240.303C742.473 235.118 744.936 228.812 744.936 221.384C744.936 211.575 740.011 204.708 730.16 200.784C725.375 198.822 719.958 197.35 713.907 196.369C701.382 194.127 691.954 190.413 685.621 185.228C679.289 179.903 676.123 171.915 676.123 161.264C676.123 150.614 680.696 142.275 689.843 136.249C698.99 130.083 710.74 127 725.094 127Z"/>
<path d="M835.375 132.465C837.627 131.064 840.16 130.363 842.974 130.363C845.788 130.363 847.547 131.975 848.251 135.198C848.392 151.454 848.673 175.769 849.095 208.141C849.095 227.901 848.533 244.648 847.407 258.381C847.125 260.483 845.788 262.375 843.396 264.057C841.145 265.599 838.823 266.369 836.43 266.369C832.49 266.369 830.52 264.337 830.52 260.273C831.927 246.259 832.631 228.882 832.631 208.141L831.364 137.511C831.927 135.549 833.264 133.867 835.375 132.465Z"/>
<path d="M920.305 127C929.452 127 937.191 128.542 943.524 131.625C949.997 134.708 953.234 138.632 953.234 143.396C953.234 145.499 952.671 147.32 951.545 148.862C950.56 150.403 949.012 151.174 946.901 151.174C944.931 151.174 940.569 149.633 933.814 146.55C927.059 143.326 920.868 141.715 915.239 141.715C909.751 141.715 904.051 143.466 898.141 146.97C892.231 150.473 889.275 154.748 889.275 159.793C889.275 166.66 892.864 171.705 900.041 174.928C905.388 177.31 913.057 179.482 923.049 181.444C933.04 183.266 941.202 187.12 947.534 193.006C953.867 198.752 957.033 207.511 957.033 219.282C957.033 237.22 951.615 250.463 940.78 259.012C934.729 263.777 926.145 266.159 915.028 266.159C904.051 266.159 893.075 263.146 882.099 257.12C874.922 253.336 871.333 249.553 871.333 245.769C871.333 244.367 871.896 242.826 873.022 241.144C874.289 239.462 875.977 238.061 878.088 236.94C880.199 235.819 882.099 235.679 883.787 236.52C885.617 237.22 888.501 238.552 892.442 240.514C896.382 242.475 899.267 243.807 901.096 244.508C907.006 246.75 912.565 247.871 917.772 247.871C922.978 247.871 927.974 245.348 932.759 240.303C937.684 235.118 940.146 228.812 940.146 221.384C940.146 211.575 935.221 204.708 925.371 200.784C920.586 198.822 915.168 197.35 909.117 196.369C896.593 194.127 887.165 190.413 880.832 185.228C874.5 179.903 871.333 171.915 871.333 161.264C871.333 150.614 875.907 142.275 885.054 136.249C894.201 130.083 905.951 127 920.305 127Z"/>
<path d="M1054.02 129.943L1077.45 129.523C1087.86 129.523 1093.07 132.255 1093.07 137.721C1093.07 139.683 1092.78 141.084 1092.22 141.925C1091.66 142.626 1091.24 143.186 1090.96 143.607C1090.67 144.027 1090.11 144.377 1089.27 144.658C1087.58 145.218 1086.17 145.569 1085.05 145.709C1083.92 145.849 1083.15 145.919 1082.72 145.919C1081.18 146.199 1078.57 146.409 1074.91 146.55C1071.25 146.69 1065.91 146.76 1058.87 146.76C1051.98 146.76 1043.46 146.479 1033.33 145.919V184.598H1076.39C1077.94 184.598 1079.35 185.298 1080.61 186.7C1082.02 188.101 1082.72 189.643 1082.72 191.324C1082.72 197.771 1079.98 200.994 1074.49 200.994H1033.33L1034.17 256.069C1034.17 263.216 1031.71 266.79 1026.79 266.79C1022 266.79 1019.19 263.567 1018.34 257.12C1017.92 255.018 1017.64 237.22 1017.5 203.727C1017.5 170.093 1017.36 150.754 1017.08 145.709C1011.87 146.269 1009.27 143.326 1009.27 136.88C1009.27 135.198 1009.97 133.376 1011.38 131.414C1012.78 129.312 1013.98 128.191 1014.97 128.051C1016.09 127.911 1017.43 127.841 1018.98 127.841C1020.66 127.841 1024.68 128.121 1031.01 128.682C1039.73 129.523 1047.4 129.943 1054.02 129.943Z"/>
<path d="M1109.74 132.465C1111.99 131.064 1114.53 130.363 1117.34 130.363C1120.16 130.363 1121.91 131.975 1122.62 135.198C1122.76 151.454 1123.04 175.769 1123.46 208.141C1123.46 227.901 1122.9 244.648 1121.77 258.381C1121.49 260.483 1120.16 262.375 1117.76 264.057C1115.51 265.599 1113.19 266.369 1110.8 266.369C1106.86 266.369 1104.89 264.337 1104.89 260.273C1106.29 246.259 1107 228.882 1107 208.141L1105.73 137.511C1106.29 135.549 1107.63 133.867 1109.74 132.465Z"/>
<path d="M1227.81 128.261C1229.22 127.42 1231.05 127 1233.3 127C1235.55 127 1237.59 127.981 1239.42 129.943C1241.25 131.765 1242.17 133.937 1242.17 136.459C1242.17 191.254 1242.38 224.397 1242.8 235.889C1243.36 247.24 1243.64 253.056 1243.64 253.336C1243.64 256.419 1242.8 259.362 1241.11 262.165C1239.42 264.828 1237.52 266.159 1235.41 266.159C1233.44 266.159 1231.89 266.089 1230.77 265.949C1229.78 265.669 1228.87 265.388 1228.02 265.108C1227.18 264.828 1226.33 264.267 1225.49 263.426L1223.38 261.324C1222.82 260.764 1222.04 259.713 1221.06 258.171C1220.21 256.49 1219.51 255.158 1218.95 254.177C1218.38 253.196 1217.47 251.515 1216.2 249.132C1215.08 246.61 1212.47 241.565 1208.39 233.997C1204.45 226.429 1200.86 219.633 1197.63 213.607C1186.51 193.286 1176.17 177.24 1166.6 165.468C1166.6 211.014 1165.33 242.616 1162.8 260.273C1162.38 263.637 1159.77 265.318 1154.99 265.318C1152.74 265.318 1150.84 264.758 1149.29 263.637C1147.88 262.516 1147.18 260.694 1147.18 258.171C1147.18 255.649 1147.67 241.775 1148.66 216.55C1149.78 191.324 1150.34 175.629 1150.34 169.462C1150.34 163.156 1150.34 159.162 1150.34 157.48C1150.34 147.39 1151.12 141.715 1152.67 140.453C1154.21 139.192 1155.83 138.562 1157.52 138.562C1165.26 138.562 1177.08 151.174 1192.98 176.399C1196.08 181.304 1201.99 191.605 1210.71 207.3C1219.44 222.856 1224.65 232.455 1226.33 236.099L1223.8 148.862C1223.8 136.81 1225.14 129.943 1227.81 128.261Z"/>
<path d="M1262.48 193.847C1260.51 192.586 1259.52 190.764 1259.52 188.381C1259.52 185.999 1260.3 183.827 1261.84 181.865C1261.28 167.851 1261 153.066 1261 137.511C1261.84 134.147 1263.11 131.695 1264.8 130.153C1266.63 128.612 1269.23 127.631 1272.61 127.21C1291.18 128.051 1311.31 128.471 1332.98 128.471C1338.33 129.593 1341 131.905 1341 135.408C1341 141.294 1335.23 144.728 1323.69 145.709C1320.6 145.849 1317.22 145.919 1313.56 145.919H1299.84C1297.17 145.919 1289.78 145.358 1277.68 144.237C1277.68 161.755 1277.96 173.807 1278.52 180.393C1285.98 180.534 1300.33 180.604 1321.58 180.604C1326.65 181.585 1329.18 183.897 1329.18 187.541C1329.18 191.044 1327.14 193.777 1323.06 195.739C1322.64 196.019 1321.86 196.299 1320.74 196.58L1284.22 195.949C1281.97 195.949 1280.14 196.089 1278.73 196.369L1279.57 232.526C1279.57 240.654 1279.36 246.469 1278.94 249.973L1327.91 249.342C1332.42 250.043 1334.67 251.935 1334.67 255.018C1334.67 257.12 1333.68 259.222 1331.71 261.324C1329.88 263.426 1327.7 264.758 1325.17 265.318L1271.13 266.159C1267.89 266.159 1265.64 265.599 1264.38 264.477C1263.11 263.216 1262.48 261.184 1262.48 258.381C1263.04 254.457 1263.32 248.151 1263.32 239.462V224.748L1262.48 193.847Z"/>
</mask>
<path d="M431.077 129.733L516.565 128.471C520.646 129.733 522.687 131.765 522.687 134.568C522.687 141.575 519.802 145.078 514.032 145.078C503.478 145.078 492.291 145.358 480.47 145.919C479.766 157.971 479.415 167.08 479.415 173.246C479.415 179.272 479.415 183.126 479.415 184.808L480.259 258.592C480.259 262.936 479.133 265.458 476.882 266.159C475.193 266.72 473.082 267 470.549 267C466.468 267 464.217 264.688 463.794 260.063C462.95 249.272 462.528 229.162 462.528 199.733C462.528 170.163 462.95 152.365 463.794 146.339C460.839 146.479 456.477 146.55 450.707 146.55C444.938 146.55 437.761 146.479 429.177 146.339C426.925 146.339 425.166 145.639 423.9 144.237C422.633 142.836 422 141.154 422 139.192C422 137.09 422.844 135.058 424.533 133.096C426.362 131.134 428.544 130.013 431.077 129.733Z" fill="#1A1A1A"/>
<path d="M548.391 185.649C559.367 187.47 569.429 188.381 578.576 188.381C587.723 188.381 593.563 188.311 596.096 188.171C595.814 177.521 595.674 167.29 595.674 157.48C595.674 147.671 595.674 141.014 595.674 137.511C595.674 134.007 595.814 131.835 596.096 130.994C596.377 130.013 597.292 129.102 598.84 128.261C600.388 127.42 602.639 127 605.595 127C609.816 127 611.927 129.523 611.927 134.568V208.982C611.927 224.397 611.575 241.354 610.872 259.853C610.731 263.917 607.283 265.949 600.529 265.949C597.151 265.949 595.463 263.917 595.463 259.853L596.307 204.147C591.804 204.427 585.612 204.568 577.732 204.568C569.992 204.568 560.212 203.727 548.391 202.045C548.391 220.544 549.235 239.883 550.924 260.063C551.065 262.305 550.08 264.057 547.969 265.318C545.858 266.439 543.184 267 539.948 267C536.852 267 535.163 265.388 534.882 262.165C533.052 242.265 532.138 222.646 532.138 203.306L533.404 137.721C533.404 134.918 534.46 132.886 536.57 131.625C538.681 130.223 540.933 129.523 543.325 129.523C547.265 129.523 549.235 131.414 549.235 135.198L548.391 185.649Z" fill="#1A1A1A"/>
<path d="M640.164 132.465C642.416 131.064 644.949 130.363 647.763 130.363C650.578 130.363 652.337 131.975 653.04 135.198C653.181 151.454 653.463 175.769 653.885 208.141C653.885 227.901 653.322 244.648 652.196 258.381C651.915 260.483 650.578 262.375 648.185 264.057C645.934 265.599 643.612 266.369 641.22 266.369C637.28 266.369 635.309 264.337 635.309 260.273C636.717 246.259 637.42 228.882 637.42 208.141L636.154 137.511C636.717 135.549 638.054 133.867 640.164 132.465Z" fill="#1A1A1A"/>
<path d="M725.094 127C734.241 127 741.981 128.542 748.313 131.625C754.786 134.708 758.023 138.632 758.023 143.396C758.023 145.499 757.46 147.32 756.334 148.862C755.349 150.403 753.801 151.174 751.69 151.174C749.72 151.174 745.358 149.633 738.603 146.55C731.849 143.326 725.657 141.715 720.028 141.715C714.54 141.715 708.841 143.466 702.93 146.97C697.02 150.473 694.065 154.748 694.065 159.793C694.065 166.66 697.653 171.705 704.83 174.928C710.177 177.31 717.847 179.482 727.838 181.444C737.829 183.266 745.991 187.12 752.324 193.006C758.656 198.752 761.822 207.511 761.822 219.282C761.822 237.22 756.405 250.463 745.569 259.012C739.518 263.777 730.934 266.159 719.817 266.159C708.841 266.159 697.864 263.146 686.888 257.12C679.711 253.336 676.123 249.553 676.123 245.769C676.123 244.367 676.686 242.826 677.811 241.144C679.078 239.462 680.767 238.061 682.877 236.94C684.988 235.819 686.888 235.679 688.577 236.52C690.406 237.22 693.291 238.552 697.231 240.514C701.171 242.475 704.056 243.807 705.885 244.508C711.796 246.75 717.354 247.871 722.561 247.871C727.768 247.871 732.763 245.348 737.548 240.303C742.473 235.118 744.936 228.812 744.936 221.384C744.936 211.575 740.011 204.708 730.16 200.784C725.375 198.822 719.958 197.35 713.907 196.369C701.382 194.127 691.954 190.413 685.621 185.228C679.289 179.903 676.123 171.915 676.123 161.264C676.123 150.614 680.696 142.275 689.843 136.249C698.99 130.083 710.74 127 725.094 127Z" fill="#1A1A1A"/>
<path d="M835.375 132.465C837.627 131.064 840.16 130.363 842.974 130.363C845.788 130.363 847.547 131.975 848.251 135.198C848.392 151.454 848.673 175.769 849.095 208.141C849.095 227.901 848.533 244.648 847.407 258.381C847.125 260.483 845.788 262.375 843.396 264.057C841.145 265.599 838.823 266.369 836.43 266.369C832.49 266.369 830.52 264.337 830.52 260.273C831.927 246.259 832.631 228.882 832.631 208.141L831.364 137.511C831.927 135.549 833.264 133.867 835.375 132.465Z" fill="#1A1A1A"/>
<path d="M920.305 127C929.452 127 937.191 128.542 943.524 131.625C949.997 134.708 953.234 138.632 953.234 143.396C953.234 145.499 952.671 147.32 951.545 148.862C950.56 150.403 949.012 151.174 946.901 151.174C944.931 151.174 940.569 149.633 933.814 146.55C927.059 143.326 920.868 141.715 915.239 141.715C909.751 141.715 904.051 143.466 898.141 146.97C892.231 150.473 889.275 154.748 889.275 159.793C889.275 166.66 892.864 171.705 900.041 174.928C905.388 177.31 913.057 179.482 923.049 181.444C933.04 183.266 941.202 187.12 947.534 193.006C953.867 198.752 957.033 207.511 957.033 219.282C957.033 237.22 951.615 250.463 940.78 259.012C934.729 263.777 926.145 266.159 915.028 266.159C904.051 266.159 893.075 263.146 882.099 257.12C874.922 253.336 871.333 249.553 871.333 245.769C871.333 244.367 871.896 242.826 873.022 241.144C874.289 239.462 875.977 238.061 878.088 236.94C880.199 235.819 882.099 235.679 883.787 236.52C885.617 237.22 888.501 238.552 892.442 240.514C896.382 242.475 899.267 243.807 901.096 244.508C907.006 246.75 912.565 247.871 917.772 247.871C922.978 247.871 927.974 245.348 932.759 240.303C937.684 235.118 940.146 228.812 940.146 221.384C940.146 211.575 935.221 204.708 925.371 200.784C920.586 198.822 915.168 197.35 909.117 196.369C896.593 194.127 887.165 190.413 880.832 185.228C874.5 179.903 871.333 171.915 871.333 161.264C871.333 150.614 875.907 142.275 885.054 136.249C894.201 130.083 905.951 127 920.305 127Z" fill="#1A1A1A"/>
<path d="M1054.02 129.943L1077.45 129.523C1087.86 129.523 1093.07 132.255 1093.07 137.721C1093.07 139.683 1092.78 141.084 1092.22 141.925C1091.66 142.626 1091.24 143.186 1090.96 143.607C1090.67 144.027 1090.11 144.377 1089.27 144.658C1087.58 145.218 1086.17 145.569 1085.05 145.709C1083.92 145.849 1083.15 145.919 1082.72 145.919C1081.18 146.199 1078.57 146.409 1074.91 146.55C1071.25 146.69 1065.91 146.76 1058.87 146.76C1051.98 146.76 1043.46 146.479 1033.33 145.919V184.598H1076.39C1077.94 184.598 1079.35 185.298 1080.61 186.7C1082.02 188.101 1082.72 189.643 1082.72 191.324C1082.72 197.771 1079.98 200.994 1074.49 200.994H1033.33L1034.17 256.069C1034.17 263.216 1031.71 266.79 1026.79 266.79C1022 266.79 1019.19 263.567 1018.34 257.12C1017.92 255.018 1017.64 237.22 1017.5 203.727C1017.5 170.093 1017.36 150.754 1017.08 145.709C1011.87 146.269 1009.27 143.326 1009.27 136.88C1009.27 135.198 1009.97 133.376 1011.38 131.414C1012.78 129.312 1013.98 128.191 1014.97 128.051C1016.09 127.911 1017.43 127.841 1018.98 127.841C1020.66 127.841 1024.68 128.121 1031.01 128.682C1039.73 129.523 1047.4 129.943 1054.02 129.943Z" fill="#1A1A1A"/>
<path d="M1109.74 132.465C1111.99 131.064 1114.53 130.363 1117.34 130.363C1120.16 130.363 1121.91 131.975 1122.62 135.198C1122.76 151.454 1123.04 175.769 1123.46 208.141C1123.46 227.901 1122.9 244.648 1121.77 258.381C1121.49 260.483 1120.16 262.375 1117.76 264.057C1115.51 265.599 1113.19 266.369 1110.8 266.369C1106.86 266.369 1104.89 264.337 1104.89 260.273C1106.29 246.259 1107 228.882 1107 208.141L1105.73 137.511C1106.29 135.549 1107.63 133.867 1109.74 132.465Z" fill="#1A1A1A"/>
<path d="M1227.81 128.261C1229.22 127.42 1231.05 127 1233.3 127C1235.55 127 1237.59 127.981 1239.42 129.943C1241.25 131.765 1242.17 133.937 1242.17 136.459C1242.17 191.254 1242.38 224.397 1242.8 235.889C1243.36 247.24 1243.64 253.056 1243.64 253.336C1243.64 256.419 1242.8 259.362 1241.11 262.165C1239.42 264.828 1237.52 266.159 1235.41 266.159C1233.44 266.159 1231.89 266.089 1230.77 265.949C1229.78 265.669 1228.87 265.388 1228.02 265.108C1227.18 264.828 1226.33 264.267 1225.49 263.426L1223.38 261.324C1222.82 260.764 1222.04 259.713 1221.06 258.171C1220.21 256.49 1219.51 255.158 1218.95 254.177C1218.38 253.196 1217.47 251.515 1216.2 249.132C1215.08 246.61 1212.47 241.565 1208.39 233.997C1204.45 226.429 1200.86 219.633 1197.63 213.607C1186.51 193.286 1176.17 177.24 1166.6 165.468C1166.6 211.014 1165.33 242.616 1162.8 260.273C1162.38 263.637 1159.77 265.318 1154.99 265.318C1152.74 265.318 1150.84 264.758 1149.29 263.637C1147.88 262.516 1147.18 260.694 1147.18 258.171C1147.18 255.649 1147.67 241.775 1148.66 216.55C1149.78 191.324 1150.34 175.629 1150.34 169.462C1150.34 163.156 1150.34 159.162 1150.34 157.48C1150.34 147.39 1151.12 141.715 1152.67 140.453C1154.21 139.192 1155.83 138.562 1157.52 138.562C1165.26 138.562 1177.08 151.174 1192.98 176.399C1196.08 181.304 1201.99 191.605 1210.71 207.3C1219.44 222.856 1224.65 232.455 1226.33 236.099L1223.8 148.862C1223.8 136.81 1225.14 129.943 1227.81 128.261Z" fill="#1A1A1A"/>
<path d="M1262.48 193.847C1260.51 192.586 1259.52 190.764 1259.52 188.381C1259.52 185.999 1260.3 183.827 1261.84 181.865C1261.28 167.851 1261 153.066 1261 137.511C1261.84 134.147 1263.11 131.695 1264.8 130.153C1266.63 128.612 1269.23 127.631 1272.61 127.21C1291.18 128.051 1311.31 128.471 1332.98 128.471C1338.33 129.593 1341 131.905 1341 135.408C1341 141.294 1335.23 144.728 1323.69 145.709C1320.6 145.849 1317.22 145.919 1313.56 145.919H1299.84C1297.17 145.919 1289.78 145.358 1277.68 144.237C1277.68 161.755 1277.96 173.807 1278.52 180.393C1285.98 180.534 1300.33 180.604 1321.58 180.604C1326.65 181.585 1329.18 183.897 1329.18 187.541C1329.18 191.044 1327.14 193.777 1323.06 195.739C1322.64 196.019 1321.86 196.299 1320.74 196.58L1284.22 195.949C1281.97 195.949 1280.14 196.089 1278.73 196.369L1279.57 232.526C1279.57 240.654 1279.36 246.469 1278.94 249.973L1327.91 249.342C1332.42 250.043 1334.67 251.935 1334.67 255.018C1334.67 257.12 1333.68 259.222 1331.71 261.324C1329.88 263.426 1327.7 264.758 1325.17 265.318L1271.13 266.159C1267.89 266.159 1265.64 265.599 1264.38 264.477C1263.11 263.216 1262.48 261.184 1262.48 258.381C1263.04 254.457 1263.32 248.151 1263.32 239.462V224.748L1262.48 193.847Z" fill="#1A1A1A"/>
<path d="M431.077 129.733L516.565 128.471C520.646 129.733 522.687 131.765 522.687 134.568C522.687 141.575 519.802 145.078 514.032 145.078C503.478 145.078 492.291 145.358 480.47 145.919C479.766 157.971 479.415 167.08 479.415 173.246C479.415 179.272 479.415 183.126 479.415 184.808L480.259 258.592C480.259 262.936 479.133 265.458 476.882 266.159C475.193 266.72 473.082 267 470.549 267C466.468 267 464.217 264.688 463.794 260.063C462.95 249.272 462.528 229.162 462.528 199.733C462.528 170.163 462.95 152.365 463.794 146.339C460.839 146.479 456.477 146.55 450.707 146.55C444.938 146.55 437.761 146.479 429.177 146.339C426.925 146.339 425.166 145.639 423.9 144.237C422.633 142.836 422 141.154 422 139.192C422 137.09 422.844 135.058 424.533 133.096C426.362 131.134 428.544 130.013 431.077 129.733Z" stroke="#1A1A1A" stroke-width="4" mask="url(#path-60-outside-1)"/>
<path d="M548.391 185.649C559.367 187.47 569.429 188.381 578.576 188.381C587.723 188.381 593.563 188.311 596.096 188.171C595.814 177.521 595.674 167.29 595.674 157.48C595.674 147.671 595.674 141.014 595.674 137.511C595.674 134.007 595.814 131.835 596.096 130.994C596.377 130.013 597.292 129.102 598.84 128.261C600.388 127.42 602.639 127 605.595 127C609.816 127 611.927 129.523 611.927 134.568V208.982C611.927 224.397 611.575 241.354 610.872 259.853C610.731 263.917 607.283 265.949 600.529 265.949C597.151 265.949 595.463 263.917 595.463 259.853L596.307 204.147C591.804 204.427 585.612 204.568 577.732 204.568C569.992 204.568 560.212 203.727 548.391 202.045C548.391 220.544 549.235 239.883 550.924 260.063C551.065 262.305 550.08 264.057 547.969 265.318C545.858 266.439 543.184 267 539.948 267C536.852 267 535.163 265.388 534.882 262.165C533.052 242.265 532.138 222.646 532.138 203.306L533.404 137.721C533.404 134.918 534.46 132.886 536.57 131.625C538.681 130.223 540.933 129.523 543.325 129.523C547.265 129.523 549.235 131.414 549.235 135.198L548.391 185.649Z" stroke="#1A1A1A" stroke-width="4" mask="url(#path-60-outside-1)"/>
<path d="M640.164 132.465C642.416 131.064 644.949 130.363 647.763 130.363C650.578 130.363 652.337 131.975 653.04 135.198C653.181 151.454 653.463 175.769 653.885 208.141C653.885 227.901 653.322 244.648 652.196 258.381C651.915 260.483 650.578 262.375 648.185 264.057C645.934 265.599 643.612 266.369 641.22 266.369C637.28 266.369 635.309 264.337 635.309 260.273C636.717 246.259 637.42 228.882 637.42 208.141L636.154 137.511C636.717 135.549 638.054 133.867 640.164 132.465Z" stroke="#1A1A1A" stroke-width="4" mask="url(#path-60-outside-1)"/>
<path d="M725.094 127C734.241 127 741.981 128.542 748.313 131.625C754.786 134.708 758.023 138.632 758.023 143.396C758.023 145.499 757.46 147.32 756.334 148.862C755.349 150.403 753.801 151.174 751.69 151.174C749.72 151.174 745.358 149.633 738.603 146.55C731.849 143.326 725.657 141.715 720.028 141.715C714.54 141.715 708.841 143.466 702.93 146.97C697.02 150.473 694.065 154.748 694.065 159.793C694.065 166.66 697.653 171.705 704.83 174.928C710.177 177.31 717.847 179.482 727.838 181.444C737.829 183.266 745.991 187.12 752.324 193.006C758.656 198.752 761.822 207.511 761.822 219.282C761.822 237.22 756.405 250.463 745.569 259.012C739.518 263.777 730.934 266.159 719.817 266.159C708.841 266.159 697.864 263.146 686.888 257.12C679.711 253.336 676.123 249.553 676.123 245.769C676.123 244.367 676.686 242.826 677.811 241.144C679.078 239.462 680.767 238.061 682.877 236.94C684.988 235.819 686.888 235.679 688.577 236.52C690.406 237.22 693.291 238.552 697.231 240.514C701.171 242.475 704.056 243.807 705.885 244.508C711.796 246.75 717.354 247.871 722.561 247.871C727.768 247.871 732.763 245.348 737.548 240.303C742.473 235.118 744.936 228.812 744.936 221.384C744.936 211.575 740.011 204.708 730.16 200.784C725.375 198.822 719.958 197.35 713.907 196.369C701.382 194.127 691.954 190.413 685.621 185.228C679.289 179.903 676.123 171.915 676.123 161.264C676.123 150.614 680.696 142.275 689.843 136.249C698.99 130.083 710.74 127 725.094 127Z" stroke="#1A1A1A" stroke-width="4" mask="url(#path-60-outside-1)"/>
<path d="M835.375 132.465C837.627 131.064 840.16 130.363 842.974 130.363C845.788 130.363 847.547 131.975 848.251 135.198C848.392 151.454 848.673 175.769 849.095 208.141C849.095 227.901 848.533 244.648 847.407 258.381C847.125 260.483 845.788 262.375 843.396 264.057C841.145 265.599 838.823 266.369 836.43 266.369C832.49 266.369 830.52 264.337 830.52 260.273C831.927 246.259 832.631 228.882 832.631 208.141L831.364 137.511C831.927 135.549 833.264 133.867 835.375 132.465Z" stroke="#1A1A1A" stroke-width="4" mask="url(#path-60-outside-1)"/>
<path d="M920.305 127C929.452 127 937.191 128.542 943.524 131.625C949.997 134.708 953.234 138.632 953.234 143.396C953.234 145.499 952.671 147.32 951.545 148.862C950.56 150.403 949.012 151.174 946.901 151.174C944.931 151.174 940.569 149.633 933.814 146.55C927.059 143.326 920.868 141.715 915.239 141.715C909.751 141.715 904.051 143.466 898.141 146.97C892.231 150.473 889.275 154.748 889.275 159.793C889.275 166.66 892.864 171.705 900.041 174.928C905.388 177.31 913.057 179.482 923.049 181.444C933.04 183.266 941.202 187.12 947.534 193.006C953.867 198.752 957.033 207.511 957.033 219.282C957.033 237.22 951.615 250.463 940.78 259.012C934.729 263.777 926.145 266.159 915.028 266.159C904.051 266.159 893.075 263.146 882.099 257.12C874.922 253.336 871.333 249.553 871.333 245.769C871.333 244.367 871.896 242.826 873.022 241.144C874.289 239.462 875.977 238.061 878.088 236.94C880.199 235.819 882.099 235.679 883.787 236.52C885.617 237.22 888.501 238.552 892.442 240.514C896.382 242.475 899.267 243.807 901.096 244.508C907.006 246.75 912.565 247.871 917.772 247.871C922.978 247.871 927.974 245.348 932.759 240.303C937.684 235.118 940.146 228.812 940.146 221.384C940.146 211.575 935.221 204.708 925.371 200.784C920.586 198.822 915.168 197.35 909.117 196.369C896.593 194.127 887.165 190.413 880.832 185.228C874.5 179.903 871.333 171.915 871.333 161.264C871.333 150.614 875.907 142.275 885.054 136.249C894.201 130.083 905.951 127 920.305 127Z" stroke="#1A1A1A" stroke-width="4" mask="url(#path-60-outside-1)"/>
<path d="M1054.02 129.943L1077.45 129.523C1087.86 129.523 1093.07 132.255 1093.07 137.721C1093.07 139.683 1092.78 141.084 1092.22 141.925C1091.66 142.626 1091.24 143.186 1090.96 143.607C1090.67 144.027 1090.11 144.377 1089.27 144.658C1087.58 145.218 1086.17 145.569 1085.05 145.709C1083.92 145.849 1083.15 145.919 1082.72 145.919C1081.18 146.199 1078.57 146.409 1074.91 146.55C1071.25 146.69 1065.91 146.76 1058.87 146.76C1051.98 146.76 1043.46 146.479 1033.33 145.919V184.598H1076.39C1077.94 184.598 1079.35 185.298 1080.61 186.7C1082.02 188.101 1082.72 189.643 1082.72 191.324C1082.72 197.771 1079.98 200.994 1074.49 200.994H1033.33L1034.17 256.069C1034.17 263.216 1031.71 266.79 1026.79 266.79C1022 266.79 1019.19 263.567 1018.34 257.12C1017.92 255.018 1017.64 237.22 1017.5 203.727C1017.5 170.093 1017.36 150.754 1017.08 145.709C1011.87 146.269 1009.27 143.326 1009.27 136.88C1009.27 135.198 1009.97 133.376 1011.38 131.414C1012.78 129.312 1013.98 128.191 1014.97 128.051C1016.09 127.911 1017.43 127.841 1018.98 127.841C1020.66 127.841 1024.68 128.121 1031.01 128.682C1039.73 129.523 1047.4 129.943 1054.02 129.943Z" stroke="#1A1A1A" stroke-width="4" mask="url(#path-60-outside-1)"/>
<path d="M1109.74 132.465C1111.99 131.064 1114.53 130.363 1117.34 130.363C1120.16 130.363 1121.91 131.975 1122.62 135.198C1122.76 151.454 1123.04 175.769 1123.46 208.141C1123.46 227.901 1122.9 244.648 1121.77 258.381C1121.49 260.483 1120.16 262.375 1117.76 264.057C1115.51 265.599 1113.19 266.369 1110.8 266.369C1106.86 266.369 1104.89 264.337 1104.89 260.273C1106.29 246.259 1107 228.882 1107 208.141L1105.73 137.511C1106.29 135.549 1107.63 133.867 1109.74 132.465Z" stroke="#1A1A1A" stroke-width="4" mask="url(#path-60-outside-1)"/>
<path d="M1227.81 128.261C1229.22 127.42 1231.05 127 1233.3 127C1235.55 127 1237.59 127.981 1239.42 129.943C1241.25 131.765 1242.17 133.937 1242.17 136.459C1242.17 191.254 1242.38 224.397 1242.8 235.889C1243.36 247.24 1243.64 253.056 1243.64 253.336C1243.64 256.419 1242.8 259.362 1241.11 262.165C1239.42 264.828 1237.52 266.159 1235.41 266.159C1233.44 266.159 1231.89 266.089 1230.77 265.949C1229.78 265.669 1228.87 265.388 1228.02 265.108C1227.18 264.828 1226.33 264.267 1225.49 263.426L1223.38 261.324C1222.82 260.764 1222.04 259.713 1221.06 258.171C1220.21 256.49 1219.51 255.158 1218.95 254.177C1218.38 253.196 1217.47 251.515 1216.2 249.132C1215.08 246.61 1212.47 241.565 1208.39 233.997C1204.45 226.429 1200.86 219.633 1197.63 213.607C1186.51 193.286 1176.17 177.24 1166.6 165.468C1166.6 211.014 1165.33 242.616 1162.8 260.273C1162.38 263.637 1159.77 265.318 1154.99 265.318C1152.74 265.318 1150.84 264.758 1149.29 263.637C1147.88 262.516 1147.18 260.694 1147.18 258.171C1147.18 255.649 1147.67 241.775 1148.66 216.55C1149.78 191.324 1150.34 175.629 1150.34 169.462C1150.34 163.156 1150.34 159.162 1150.34 157.48C1150.34 147.39 1151.12 141.715 1152.67 140.453C1154.21 139.192 1155.83 138.562 1157.52 138.562C1165.26 138.562 1177.08 151.174 1192.98 176.399C1196.08 181.304 1201.99 191.605 1210.71 207.3C1219.44 222.856 1224.65 232.455 1226.33 236.099L1223.8 148.862C1223.8 136.81 1225.14 129.943 1227.81 128.261Z" stroke="#1A1A1A" stroke-width="4" mask="url(#path-60-outside-1)"/>
<path d="M1262.48 193.847C1260.51 192.586 1259.52 190.764 1259.52 188.381C1259.52 185.999 1260.3 183.827 1261.84 181.865C1261.28 167.851 1261 153.066 1261 137.511C1261.84 134.147 1263.11 131.695 1264.8 130.153C1266.63 128.612 1269.23 127.631 1272.61 127.21C1291.18 128.051 1311.31 128.471 1332.98 128.471C1338.33 129.593 1341 131.905 1341 135.408C1341 141.294 1335.23 144.728 1323.69 145.709C1320.6 145.849 1317.22 145.919 1313.56 145.919H1299.84C1297.17 145.919 1289.78 145.358 1277.68 144.237C1277.68 161.755 1277.96 173.807 1278.52 180.393C1285.98 180.534 1300.33 180.604 1321.58 180.604C1326.65 181.585 1329.18 183.897 1329.18 187.541C1329.18 191.044 1327.14 193.777 1323.06 195.739C1322.64 196.019 1321.86 196.299 1320.74 196.58L1284.22 195.949C1281.97 195.949 1280.14 196.089 1278.73 196.369L1279.57 232.526C1279.57 240.654 1279.36 246.469 1278.94 249.973L1327.91 249.342C1332.42 250.043 1334.67 251.935 1334.67 255.018C1334.67 257.12 1333.68 259.222 1331.71 261.324C1329.88 263.426 1327.7 264.758 1325.17 265.318L1271.13 266.159C1267.89 266.159 1265.64 265.599 1264.38 264.477C1263.11 263.216 1262.48 261.184 1262.48 258.381C1263.04 254.457 1263.32 248.151 1263.32 239.462V224.748L1262.48 193.847Z" stroke="#1A1A1A" stroke-width="4" mask="url(#path-60-outside-1)"/>
<defs>
<linearGradient id="paint0_linear" x1="220.698" y1="288.056" x2="225.824" y2="376.983" gradientUnits="userSpaceOnUse">
<stop stop-color="#5C5C5C"/>
<stop offset="0.375" stop-color="#525252"/>
<stop offset="1" stop-color="#6B6B6B"/>
</linearGradient>
<linearGradient id="paint1_linear" x1="104.33" y1="168.158" x2="104.33" y2="390.649" gradientUnits="userSpaceOnUse">
<stop stop-color="#5C5C5C"/>
<stop offset="0.375" stop-color="#525252"/>
<stop offset="1" stop-color="#6B6B6B"/>
</linearGradient>
<linearGradient id="paint2_linear" x1="275.88" y1="116.937" x2="275.88" y2="163.056" gradientUnits="userSpaceOnUse">
<stop stop-color="#5C5C5C"/>
<stop offset="0.375" stop-color="#525252"/>
<stop offset="1" stop-color="#6B6B6B"/>
</linearGradient>
<linearGradient id="paint3_linear" x1="289.916" y1="199.78" x2="289.916" y2="251.804" gradientUnits="userSpaceOnUse">
<stop stop-color="#5C5C5C"/>
<stop offset="0.375" stop-color="#525252"/>
<stop offset="1" stop-color="#6B6B6B"/>
</linearGradient>
</defs>
</svg>
